<svg width="17" height="24" viewBox="0 0 17 24" fill="none" xmlns="http://www.w3.org/2000/svg"><path d="M0 16.855V0h17v16.855c0 1-.505 1.931-1.342 2.477l-5.52 3.6a3 3 0 0 1-3.277 0l-5.52-3.6A2.96 2.96 0 0 1 0 16.855" fill="#D7D7D9"/><path fill-rule="evenodd" clip-rule="evenodd" d="M7.893 8.251a.86.86 0 0 1 1.159-.05l.055.05.815.815h1.153a.86.86 0 0 1 .856.794l.003.065v1.153l.815.815a.86.86 0 0 1 .05 1.16l-.05.054-.816.815v1.153a.86.86 0 0 1-.794.856l-.064.002H9.923l-.816.816a.86.86 0 0 1-1.159.05l-.054-.05-.816-.816H5.925a.86.86 0 0 1-.856-.794l-.002-.064v-1.153l-.816-.815a.86.86 0 0 1-.05-1.16l.05-.054.816-.815V9.925a.86.86 0 0 1 .794-.856l.064-.003h1.153zm1.929 2.954L8 13.027l-.759-.76a.43.43 0 0 0-.607.608l1.032 1.032a.474.474 0 0 0 .668 0l2.094-2.095a.43.43 0 0 0-.606-.607" fill="#fff"/></svg>