<svg width="12" height="11" viewBox="0 0 12 11" fill="none" xmlns="http://www.w3.org/2000/svg"><path d="M11.4 4.8h-1.2V1.2h.6V0H1.2v1.2h.6v3.6H.6a.6.6 0 0 0-.6.6v5.4h12V5.4a.6.6 0 0 0-.6-.6M7.2 9.6V7.2H4.8v2.4H3V1.2h6v8.4z" fill="url(#a)"/><path d="M4.2 2.4h1.2v1.2H4.2zm2.4 0h1.2v1.2H6.6zM4.2 4.8h1.2V6H4.2zm2.4 0h1.2V6H6.6z" fill="url(#b)"/><defs><linearGradient id="a" x1="5.896" y1="-.059" x2="5.896" y2="13.072" gradientUnits="userSpaceOnUse"><stop stop-color="#CBCBCB"/><stop offset="1" stop-color="#CBCBCB"/></linearGradient><linearGradient id="b" x1="5.969" y1="2.381" x2="5.969" y2="6.758" gradientUnits="userSpaceOnUse"><stop stop-color="#CBCBCB"/><stop offset="1" stop-color="#CBCBCB"/></linearGradient></defs></svg>