<svg width="355.904" height="293" viewBox="0 0 355.904 293" fill="none" xmlns="http://www.w3.org/2000/svg"><g clip-path="url(#a)"><path d="M353.921 18.465H.514a.514.514 0 0 1 0-1.027h353.407a.514.514 0 1 1 0 1.027" fill="#CACACA"/><path d="M12.057 11.285a5.641 5.641 0 1 0 0-11.285 5.641 5.641 0 0 0 0 11.285m19.492 0a5.641 5.641 0 1 0 0-11.285 5.641 5.641 0 0 0 0 11.285m19.491 0A5.641 5.641 0 1 0 51.04 0a5.641 5.641 0 0 0 0 11.285M222.003 70.69h-89.572a4.22 4.22 0 0 1 0-8.439h89.571a4.219 4.219 0 1 1 0 8.439M207.56 56.249h-60.688a4.22 4.22 0 0 1 0-8.439h60.689a4.22 4.22 0 0 1 0 8.437M63.466 189.901c20.679 0 37.444-16.764 37.444-37.444s-16.766-37.443-37.444-37.443-37.444 16.766-37.444 37.444 16.764 37.444 37.444 37.444m242.102-.002c20.679 0 37.444-16.764 37.444-37.444s-16.766-37.444-37.444-37.444-37.444 16.766-37.444 37.444 16.764 37.444 37.444 37.444m-128.233 0c20.679 0 37.444-16.764 37.444-37.444s-16.766-37.444-37.444-37.444-37.444 16.766-37.444 37.444 16.764 37.444 37.444 37.444" fill="#fff"/><path d="M323.767 168.686a58.3 58.3 0 0 0-9.204-3.874l-.405-4.48-16.416-1.767-2.087 5.725-5.892 2.21a3 3 0 0 0-.597.312h-.006a5.8 5.8 0 0 0-2.702.936 6 6 0 0 0-1.445 1.295 33 33 0 0 0 2.478 1.7l.038.02q.364.225.74.443c.449.266.911.523 1.37.764l.293.151q1.007.525 2.06.983c.143.063.299.124.443.187l.032.013q.495.203.997.392 1.659.632 3.376 1.082a34.8 34.8 0 0 0 12.219 1.014 34.7 34.7 0 0 0 7.249-1.463l.019-.005q2.238-.712 4.354-1.726l.025-.011c.318-.15.622-.312.934-.466l.151-.074q.372-.194.748-.399.933-.514 1.835-1.092.25-.15.498-.317.358-.235.704-.487-.87-.561-1.805-1.065" fill="#2B66F6"/><path d="M305.305 155.736a11.824 11.824 0 1 0 0-23.646 11.824 11.824 0 0 0 0 23.646" fill="#A0616A"/><path d="M297.367 138.151c1.224 1.448 3.294 1.857 5.206 2.024 3.88.339 9.524-.213 13.314-1.087.271 2.624-.466 5.452 1.079 7.61a35.4 35.4 0 0 0 1.255-8.009 7.7 7.7 0 0 0-.444-3.429 3.17 3.17 0 0 0-2.689-1.982 6.8 6.8 0 0 1 3.004-1.284l-3.754-1.887.966-.988-6.797-.416 1.968-1.251a42.5 42.5 0 0 0-8.943-.282c-1.386.101-2.834.296-3.957 1.1-1.122.802-1.769 2.398-1.074 3.576a5.2 5.2 0 0 0-3.957 3.138 8.35 8.35 0 0 0-.299 4.03 28.5 28.5 0 0 0 1.497 6.336zm-117.953-5.969a5 5 0 1 0 0-9.998 5 5 0 0 0 0 9.998" fill="#2F2E41"/><path d="M175.077 129.787a5 5 0 0 1 1.818-8.391 4.995 4.995 0 0 0 .271 9.923 5 5 0 0 0 2.046-.239 4.98 4.98 0 0 1-4.135-1.292" fill="#2F2E41"/><path d="M179.515 159.217a14.685 14.685 0 1 0 0-29.371 14.685 14.685 0 0 0 0 29.371" fill="#2F2E41"/><path d="M166.451 136.447a14.68 14.68 0 0 1 20.351-1.539q-.176-.173-.362-.34a14.686 14.686 0 1 0-19.513 21.95q.187.164.38.323a14.68 14.68 0 0 1-.854-20.393" fill="#2F2E41"/><path d="M179.389 159.093a9.459 9.459 0 1 0 0-18.916 9.459 9.459 0 0 0 0 18.916" fill="#A0616A"/><path d="M196.315 174.277v3.176a32 32 0 0 1-1.766 1.048q-.361.195-.718.383l-.143.071c-.299.151-.594.306-.899.451-.005.005-.019.005-.024.011a33 33 0 0 1-4.187 1.659c-.005 0-.011.006-.019.006a33 33 0 0 1-6.969 1.407 33.4 33.4 0 0 1-11.748-.977 33 33 0 0 1-4.203-1.419l-.03-.013c-.137-.06-.288-.12-.425-.178a32 32 0 0 1-1.982-.947l-.282-.142a35 35 0 0 1-2.029-1.163l-.036-.019a33 33 0 0 1-2.958-2.078q-.726-.558-1.407-1.167a33 33 0 0 1-3.191-3.191q.156-.937.455-1.838l.005-.005q.055-.156.126-.299.05-.129.117-.252c1.071-2.007 3.01-2.503 5.417-2.61 1.358-.061 2.862.005 4.449-.013a32 32 0 0 0 2.576-.112c5.477-.498 4.485-3.732 4.729-5.472.247-1.689 1.766-.228 1.868-.132l.005.006a19.4 19.4 0 0 0 9.94 1.741q.881-.106 1.76-.132c1.544-.017 1.21.425.677.791a6 6 0 0 1-.808.455s-.247 1.497-.496 3.737c-.239 2.144 7.311 2.887 8.79 3.354h.005a5.4 5.4 0 0 1 3.401 3.867" fill="#2B66F6"/><path d="M169.806 149.013c.414 0 .748-.613.748-1.369s-.334-1.369-.748-1.369c-.413 0-.747.613-.747 1.369s.334 1.369.747 1.369m19.168 0c.413 0 .747-.613.747-1.369s-.334-1.369-.747-1.369c-.414 0-.747.613-.747 1.369s.332 1.369.747 1.369" fill="#A0616A"/><path d="m51.486 155.079 1.796 6.224 22.961-.405-.2-11.405c-.159-9.025-6.539-16.811-15.565-16.654s-14.767 7.791-14.609 16.819l1.312 11.753 3.743-.066z" fill="#2F2E41"/><path d="M61.503 159.433a10.302 10.302 0 1 0 0-20.606 10.302 10.302 0 0 0 0 20.606" fill="#FFB6B6"/><path d="M72.784 141.894a3.94 3.94 0 0 0-.712-2.205q-.069-.098-.14-.191a4 4 0 0 0-3.22-1.537l-7.404.132-7.399.129a4.006 4.006 0 0 0-3.93 4.072l1.763 3.548 1.013 2.038.167-.095c6.407-3.601 9.023-3.648 17.501-.301l.17.066.673-1.719 1.523-3.9z" fill="#2F2E41"/><path d="M82.012 165.195c-2.21-2.205-9.688-1.328-9.688-1.328l-19.732 1.241c-4.376.325-8.321 3.829-9.749 5.247q.345.337.703.652a27.61 27.61 0 0 0 32.485 3.088c2.114-1.263 4.82-2.776 6.515-4.543.671-.695 1.208-.682 1.804-1.443a6 6 0 0 0-2.339-2.913" fill="#2B66F6"/><path d="M63.466 293c20.679 0 37.444-16.764 37.444-37.444s-16.766-37.443-37.444-37.443-37.444 16.764-37.444 37.443c0 20.68 16.764 37.444 37.444 37.444m242.102 0c20.679 0 37.444-16.764 37.444-37.444s-16.766-37.443-37.444-37.443-37.444 16.764-37.444 37.443c0 20.68 16.764 37.444 37.444 37.444m-128.233 0c20.679 0 37.444-16.764 37.444-37.444s-16.766-37.443-37.444-37.443-37.444 16.764-37.444 37.443c0 20.68 16.764 37.444 37.444 37.444" fill="#fff"/><path d="M62.855 260.928a10.353 10.353 0 1 0-.002-20.704 10.353 10.353 0 0 0 0 20.704" fill="#FFB8B8"/><path d="M53.06 253.814s.879-1.544.676-6.704 7.653-2.243 14.22-2.735c6.564-.491 5.175 8.615 5.175 8.615s.474-.542 1.487-4.937-1.289-8.776-1.289-8.776c-.679-4.619-4.332-3.138-4.332-3.138 1.76.685 1.422 2.15 1.422 2.15-1.49-2.612-5.145-1.133-5.145-1.133-4.875-3.058-9.814.97-9.814.97-5.888 1.336-2.435 6.019-2.435 6.019-5.921 2.993.036 9.667.036 9.667" fill="#2F2E41"/><path d="M80.125 274.871a58.3 58.3 0 0 0-9.204-3.874l-.405-4.478-16.416-1.767-2.086 5.723-5.893 2.212a2.8 2.8 0 0 0-.597.312h-.006a5.8 5.8 0 0 0-2.703.934 6 6 0 0 0-1.443 1.296 33 33 0 0 0 2.478 1.7l.038.019q.364.227.74.443c.449.268.911.523 1.37.767l.293.15q1.007.525 2.06.985l.443.187.032.011q.495.206.997.392 1.657.632 3.377 1.084a34.8 34.8 0 0 0 12.216 1.014 34.7 34.7 0 0 0 7.251-1.463l.019-.006q2.238-.712 4.354-1.725l.025-.013c.318-.15.622-.312.934-.466l.15-.074q.376-.194.748-.399.934-.514 1.837-1.089.25-.15.498-.318.358-.233.704-.485-.871-.562-1.804-1.066m111.446-2.19-6.23-.566-3.73-2.724q0-.008-.005-.014l-.009.005-.15-.11-.02.173-6.293 2.42-6.466-1.492-2.238 2.42-9.965 3.306a5 5 0 0 0-1.246 1.178v.006c.419.328.849.651 1.284.955a34.7 34.7 0 0 0 12.065 5.548c.452.11.909.217 1.366.302q1.386.288 2.806.452 2.086.255 4.192.25 1.435 0 2.843-.109a35 35 0 0 0 4.898-.747l.172-.043a34.7 34.7 0 0 0 8.209-3.013 33 33 0 0 0 2.483-1.413q.911-.566 1.777-1.189.534-.381 1.052-.784l-.036-.079a8.3 8.3 0 0 0-6.758-4.734" fill="#2B66F6"/><path d="M185.62 241.579a11.7 11.7 0 0 0-2.439-1.845c-5.51-3.04-11.529-3.094-16.515-.15a15.8 15.8 0 0 0-3.362 2.67 15.72 15.72 0 0 0-4.375 10.846v11.991h31.364v-13.218c0-3.541-1.949-7.642-4.674-10.296" fill="#2F2E41"/><path d="M173.99 264.767a11.328 11.328 0 1 0 0-22.657 11.328 11.328 0 0 0 0 22.657" fill="#FFB8B8"/><path d="M185.611 243.157a1.4 1.4 0 0 0-.794-1.131c-7.089-3.311-14.277-3.225-21.354.26h-.131l-.043.176c-1.396 10.75-1.199 10.986-1.112 11.082a1.42 1.42 0 0 0 1.049.476h16.158l.039-.183q.282-1.445.721-2.85.967 1.411 1.775 2.917l.068.115h3.143a1.36 1.36 0 0 0 1.019-.452c.087-.091.29-.313-.539-10.413" fill="#2F2E41"/><path d="m314.04 271.227-.41-4.529-16.63-1.793-2.106 5.797-5.969 2.237a3 3 0 0 0-.614.315 6.03 6.03 0 0 0-3.255 1.323q.203.167.408.328l.09.076q.572.446 1.164.862.153.115.313.221 1.3.918 2.683 1.701 1.322.753 2.714 1.389a33.6 33.6 0 0 0 6.046 2.095c.441.107.885.213 1.331.296q1.35.282 2.735.441 2.037.249 4.085.243 1.399 0 2.771-.107a35 35 0 0 0 4.775-.726q.085-.017.169-.041a33.7 33.7 0 0 0 8.001-2.936 32 32 0 0 0 3.255-1.919c-4.253-2.861-10.428-4.91-11.555-5.271" fill="#2B66F6"/><path d="M304.667 262.037a11.975 11.975 0 1 0 0-23.952 11.975 11.975 0 0 0 0 23.952" fill="#A0616A"/><path d="M296.628 244.227c1.24 1.468 3.338 1.882 5.272 2.049 3.93.347 9.644-.214 13.486-1.101.274 2.657-.474 5.523 1.092 7.708a35.7 35.7 0 0 0 1.271-8.111 7.8 7.8 0 0 0-.449-3.473 3.2 3.2 0 0 0-2.724-2.008 1.01 1.01 0 0 0 .221-1.044 3.39 3.39 0 0 0-2.576-2.55l-4.31-1.038s-4.045-1.775-7.067-1.553c-1.404.104-2.87.301-4.006 1.114s-1.793 2.429-1.087 3.622a5.25 5.25 0 0 0-4.007 3.18 8.5 8.5 0 0 0-.304 4.08 29 29 0 0 0 1.517 6.415zM189.607 142.395a4.6 4.6 0 0 0-2.253-2.702 13 13 0 0 0-3.396-1.196 22.4 22.4 0 0 0-6.363-.871c-2.146.106-4.338.846-5.797 2.424s-1.997 4.083-.937 5.951l-.118.482a8.87 8.87 0 0 0 8.666-4.267 8.08 8.08 0 0 0 7.659 3.722 3.6 3.6 0 0 0 1.369-.394 2.85 2.85 0 0 0 1.17-3.151" fill="#2F2E41"/><path d="M342.243 3.451h-13.85a1.027 1.027 0 0 1 0-2.053h13.85a1.027 1.027 0 0 1 0 2.053m0 3.845h-13.85a1.027 1.027 0 0 1 0-2.053h13.85a1.027 1.027 0 0 1 0 2.053m0 3.848h-13.85a1.027 1.027 0 0 1 0-2.053h13.85a1.027 1.027 0 0 1 0 2.053" fill="#fff"/></g><defs><clipPath id="a"><path fill="#fff" d="M0 0h354.434v293H0z"/></clipPath></defs></svg>