<svg width="13" height="13" viewBox="0 0 13 13" fill="none" xmlns="http://www.w3.org/2000/svg"><circle cx="6.5" cy="6.5" r="6.5" fill="url(#a)"/><path d="M3.056 3.549A.36.36 0 0 1 3 3.353C3 3.158 3.15 3 3.336 3h1.495c.153 0 .296.085.374.223l.937 1.639a2.8 2.8 0 0 0-1.687.889zm6.887 0L8.545 5.75a2.8 2.8 0 0 0-1.687-.89l.937-1.638A.43.43 0 0 1 8.169 3h1.495c.186 0 .336.158.336.353q-.001.107-.056.196zm-5.85 4.277c0-.67.254-1.313.706-1.787a2.35 2.35 0 0 1 1.701-.74c.638 0 1.25.266 1.701.74s.705 1.117.705 1.787-.253 1.314-.705 1.788a2.35 2.35 0 0 1-1.701.74 2.35 2.35 0 0 1-1.701-.74 2.6 2.6 0 0 1-.705-1.788m2.522-1.363a.125.125 0 0 0-.23 0l-.306.652a.13.13 0 0 1-.096.073l-.686.105c-.105.016-.146.151-.071.23l.496.509a.14.14 0 0 1 .037.119l-.118.717c-.017.109.092.194.186.142l.613-.34a.13.13 0 0 1 .119 0l.612.34c.095.052.204-.032.186-.142L7.24 8.15a.14.14 0 0 1 .037-.12l.496-.508c.076-.077.034-.212-.071-.23l-.685-.105a.13.13 0 0 1-.096-.073z" fill="#fff"/><defs><linearGradient id="a" x1="6.387" y1="-.071" x2="6.387" y2="15.735" gradientUnits="userSpaceOnUse"><stop stop-color="#EB7C49"/><stop offset="1" stop-color="#F04F52"/></linearGradient></defs></svg>