<svg width="12" height="12" viewBox="0 0 12 12" fill="none" xmlns="http://www.w3.org/2000/svg"><path d="M1.409 6.494h3.658c.335 0 .61-.275.61-.61V1.006a.61.61 0 0 0-.61-.61H1.409a.61.61 0 0 0-.61.61v4.878c0 .335.274.61.61.61m0 4.877h3.658c.335 0 .61-.274.61-.61V8.324a.61.61 0 0 0-.61-.61H1.409a.61.61 0 0 0-.61.61v2.439c0 .335.274.61.61.61m6.097 0h3.658c.335 0 .61-.274.61-.61V5.885a.61.61 0 0 0-.61-.61H7.506a.61.61 0 0 0-.61.61v4.878c0 .335.274.61.61.61m-.61-10.365v2.439c0 .335.274.61.61.61h3.658c.335 0 .61-.275.61-.61V1.006a.61.61 0 0 0-.61-.61H7.506a.61.61 0 0 0-.61.61" fill="url(#a)"/><defs><linearGradient id="a" x1="6.191" y1=".336" x2="6.191" y2="13.68" gradientUnits="userSpaceOnUse"><stop stop-color="#EB7C49"/><stop offset="1" stop-color="#F04F52"/></linearGradient></defs></svg>