<svg width="14" height="11" viewBox="0 0 14 11" fill="none" xmlns="http://www.w3.org/2000/svg"><path d="M4.55 5.6a2.45 2.45 0 1 0 0-4.899 2.45 2.45 0 0 0 0 4.9m7.7-1.225a1.924 1.924 0 1 1-3.849.001 1.924 1.924 0 0 1 3.849 0M4.55 6.3c.957 0 2.514.298 3.535.891.418.425.665.888.665 1.35v1.96H0V8.54C0 7.05 3.031 6.3 4.55 6.3M14 10.5H9.45V8.54c0-.495-.179-.952-.463-1.359a7 7 0 0 1 1.476-.18C11.767 7 14 7.625 14 8.866z" fill="url(#a)"/><defs><linearGradient id="a" x1="6.879" y1=".646" x2="6.879" y2="12.562" gradientUnits="userSpaceOnUse"><stop stop-color="#EB7C49"/><stop offset="1" stop-color="#F04F52"/></linearGradient></defs></svg>