<svg width="23" height="23" viewBox="0 0 23 23" fill="none" xmlns="http://www.w3.org/2000/svg"><path d="M8.762 4.381h4.38v-2.19h-4.38zM17.524 23q-2.273 0-3.874-1.602-1.602-1.603-1.602-3.874 0-2.273 1.602-3.874 1.602-1.602 3.874-1.602t3.875 1.602Q23 15.252 23 17.524t-1.602 3.875T17.524 23M2.19 20.81a2.1 2.1 0 0 1-1.546-.643A2.1 2.1 0 0 1 0 18.619V6.571q0-.903.644-1.546.645-.643 1.546-.644h4.381v-2.19q0-.904.644-1.547Q7.86.001 8.762 0h4.38a2.1 2.1 0 0 1 1.548.644q.645.645.643 1.546v2.191h4.381a2.1 2.1 0 0 1 1.548.644q.644.645.643 1.546v4.683a7.4 7.4 0 0 0-2.081-1.04 7.6 7.6 0 0 0-2.3-.357q-3.177 0-5.422 2.245t-2.245 5.422q0 .849.179 1.684.179.836.56 1.602z" fill="url(#a)"/><defs><linearGradient id="a" x1="11.301" y1="-.126" x2="11.301" y2="27.838" gradientUnits="userSpaceOnUse"><stop stop-color="#EB7C49"/><stop offset="1" stop-color="#F04F52"/></linearGradient></defs></svg>