<svg width="7" height="7" viewBox="0 0 7 7" fill="none" xmlns="http://www.w3.org/2000/svg"><path d="M3.5 0a3.5 3.5 0 1 1 0 7 3.5 3.5 0 0 1 0-7m0 .7a2.8 2.8 0 1 0 0 5.6 2.8 2.8 0 0 0 0-5.6m0 .7a.35.35 0 0 1 .348.31l.002.04v1.605l.947.948a.35.35 0 0 1-.462.524l-.032-.03-1.05-1.05a.35.35 0 0 1-.1-.201L3.15 3.5V1.75a.35.35 0 0 1 .35-.35" fill="url(#a)"/><defs><linearGradient id="a" x1="3.439" y1="-.038" x2="3.439" y2="8.472" gradientUnits="userSpaceOnUse"><stop stop-color="#EB7C49"/><stop offset="1" stop-color="#F04F52"/></linearGradient></defs></svg>