<svg width="11" height="11" viewBox="0 0 11 11" fill="none" xmlns="http://www.w3.org/2000/svg">
<path d="M0.693359 8.46607V9.96477C0.693359 10.0514 0.72779 10.1346 0.789077 10.1958C0.850363 10.2571 0.933486 10.2916 1.02016 10.2916H2.52212C2.60863 10.2915 2.6916 10.2572 2.75284 10.1961L8.92803 4.02095L6.96724 2.06016L0.789438 8.23535C0.728108 8.29649 0.693551 8.37947 0.693359 8.46607ZM7.77639 1.25035L9.73719 3.21114L10.6914 2.25689C10.814 2.13432 10.8828 1.96811 10.8828 1.7948C10.8828 1.62149 10.814 1.45527 10.6914 1.33271L9.65549 0.296101C9.53292 0.17357 9.3667 0.104736 9.19339 0.104736C9.02008 0.104736 8.85387 0.17357 8.7313 0.296101L7.77639 1.25035Z" fill="#8F8F8F"/>
</svg>
