<svg width="12" height="13" viewBox="0 0 12 13" fill="none" xmlns="http://www.w3.org/2000/svg"><path d="M5.858.96A5.557 5.557 0 0 0 .303 6.517a5.557 5.557 0 0 0 5.555 5.555 5.557 5.557 0 0 0 5.555-5.555A5.557 5.557 0 0 0 5.858.96m0 10a4.45 4.45 0 0 1-4.444-4.444 4.45 4.45 0 0 1 4.444-4.444 4.45 4.45 0 0 1 4.444 4.444 4.45 4.45 0 0 1-4.444 4.444m-.556-2.222h1.111v1.11h-1.11zm.895-5.533a2.22 2.22 0 0 0-2.461 1.55c-.1.322.144.65.483.65h.111c.228 0 .411-.161.489-.372a1.11 1.11 0 0 1 1.278-.711c.527.11.916.627.872 1.166-.056.745-.9.906-1.361 1.6 0 .006-.006.006-.006.011-.005.011-.011.017-.017.028-.05.083-.1.178-.138.278-.006.016-.017.027-.023.044-.005.011-.005.022-.01.039a2 2 0 0 0-.112.694h1.111c0-.233.061-.427.156-.594.01-.017.016-.033.027-.05.045-.078.1-.15.156-.217.006-.005.011-.016.017-.022q.082-.099.183-.189c.533-.505 1.255-.916 1.105-1.977-.133-.967-.894-1.783-1.86-1.928" fill="#121212"/></svg>