<svg width="80" height="23" viewBox="0 0 80 23" fill="none" xmlns="http://www.w3.org/2000/svg"><rect width="5.895" height="10.388" rx="1.244" transform="rotate(44.744 4.135 15.058)skewX(.013)" fill="url(#a)"/><g filter="url(#b)"><rect x="9.801" y="22.387" width="5.895" height="10.365" rx="1.244" transform="rotate(-135.262 9.8 22.387)" fill="url(#c)"/></g><rect width="5.916" height="4.408" rx="1.244" transform="rotate(44.744 -10.294 9.156)skewX(.013)" fill="url(#d)"/><rect x="18.126" y="13.94" width="5.92" height="4.44" rx="1.244" transform="rotate(-135.262 18.126 13.94)" fill="url(#e)"/><path d="M25.335 17.457V8.09h2.14v1.561h.098q.255-.81.878-1.25a2.4 2.4 0 0 1 1.433-.445q.183 0 .409.018.231.013.384.043v2.03a2.3 2.3 0 0 0-.445-.085 4 4 0 0 0-.58-.042q-.603 0-1.085.262-.476.256-.75.713a2 2 0 0 0-.275 1.056v5.506zm10.57.183q-1.409 0-2.434-.585a3.97 3.97 0 0 1-1.567-1.671q-.549-1.086-.549-2.555 0-1.446.55-2.537a4.15 4.15 0 0 1 1.548-1.708q.994-.615 2.336-.616.866 0 1.634.28.774.275 1.366.855.597.58.939 1.475.342.89.341 2.123v.676h-7.677V11.89h5.561a2.4 2.4 0 0 0-.274-1.128 2 2 0 0 0-.75-.786 2.1 2.1 0 0 0-1.11-.287q-.677 0-1.19.33-.51.323-.798.853-.28.525-.287 1.153v1.299q0 .817.3 1.402.297.58.835.89.536.305 1.256.305.482 0 .872-.134.39-.14.677-.408.285-.269.433-.665l2.061.232a3.2 3.2 0 0 1-.744 1.427 3.6 3.6 0 0 1-1.39.939q-.849.33-1.94.329m10.118 0q-1.402 0-2.409-.616a4.1 4.1 0 0 1-1.543-1.701q-.536-1.091-.536-2.513 0-1.426.548-2.518a4.1 4.1 0 0 1 1.55-1.708q1.005-.615 2.377-.616 1.14 0 2.019.421.885.415 1.409 1.177.524.756.597 1.768h-2.11a2 2 0 0 0-.61-1.128q-.475-.457-1.274-.457-.677 0-1.19.366-.51.36-.798 1.037-.28.676-.28 1.622 0 .957.28 1.646.281.684.787 1.055.512.366 1.201.366.488 0 .872-.183.39-.189.653-.543.261-.353.36-.86h2.11a3.7 3.7 0 0 1-.586 1.763 3.47 3.47 0 0 1-1.378 1.195q-.873.427-2.05.427m9.91 0q-1.371 0-2.378-.604a4.1 4.1 0 0 1-1.56-1.689q-.55-1.085-.55-2.537 0-1.45.55-2.543a4.1 4.1 0 0 1 1.56-1.695q1.006-.603 2.379-.604 1.371 0 2.378.604 1.006.604 1.555 1.695.555 1.092.555 2.543t-.555 2.537a4.06 4.06 0 0 1-1.555 1.69q-1.006.603-2.378.603m.013-1.769q.744 0 1.244-.408.5-.414.744-1.11.25-.695.25-1.549a4.6 4.6 0 0 0-.25-1.555q-.244-.701-.744-1.116-.5-.414-1.244-.414-.762 0-1.269.414-.5.415-.75 1.116a4.7 4.7 0 0 0-.244 1.555q0 .854.244 1.55.25.695.75 1.109.506.409 1.269.409m6.35 1.586V8.09h2.14v1.561h.097q.257-.81.879-1.25a2.4 2.4 0 0 1 1.433-.445q.183 0 .408.018.233.013.384.043v2.03a2.3 2.3 0 0 0-.445-.085 4 4 0 0 0-.58-.042q-.602 0-1.085.262-.475.256-.75.713a2 2 0 0 0-.274 1.056v5.506zm9.898.165q-1.103 0-1.976-.567-.871-.567-1.378-1.647t-.506-2.622q0-1.56.512-2.634.519-1.08 1.397-1.629a3.6 3.6 0 0 1 1.957-.555q.824 0 1.354.28.53.275.842.666.31.384.481.725h.092V4.97h2.213v12.488h-2.17v-1.476h-.135a3.8 3.8 0 0 1-.494.726 2.7 2.7 0 0 1-.853.646q-.531.27-1.336.269m.616-1.812q.702 0 1.195-.378.495-.383.75-1.067.257-.683.257-1.591t-.257-1.58q-.249-.67-.744-1.043-.487-.37-1.2-.371-.739 0-1.233.384-.493.385-.744 1.06-.25.678-.25 1.55 0 .878.25 1.567.257.682.75 1.08.5.39 1.226.39" fill="#121212"/><defs><linearGradient id="a" x1="2.896" y1="-.057" x2="2.896" y2="12.573" gradientUnits="userSpaceOnUse"><stop stop-color="#EB7C49"/><stop offset="1" stop-color="#F04F52"/></linearGradient><linearGradient id="c" x1="12.697" y1="22.33" x2="12.697" y2="34.932" gradientUnits="userSpaceOnUse"><stop stop-color="#EB7C49"/><stop offset="1" stop-color="#F04F52"/></linearGradient><linearGradient id="d" x1="2.907" y1="-.024" x2="2.907" y2="5.336" gradientUnits="userSpaceOnUse"><stop stop-color="#EB7C49"/><stop offset="1" stop-color="#F04F52"/></linearGradient><linearGradient id="e" x1="21.035" y1="13.915" x2="21.035" y2="19.314" gradientUnits="userSpaceOnUse"><stop stop-color="#EB7C49"/><stop offset="1" stop-color="#F04F52"/></linearGradient><filter id="b" x="5.981" y="11.391" width="10.748" height="10.777" filterUnits="userSpaceOnUse" color-interpolation-filters="sRGB"><feFlood flood-opacity="0" result="BackgroundImageFix"/><feColorMatrix in="SourceAlpha" values="0 0 0 0 0 0 0 0 0 0 0 0 0 0 0 0 0 0 127 0" result="hardAlpha"/><feOffset dy=".148"/><feGaussianBlur stdDeviation=".074"/><feComposite in2="hardAlpha" operator="out"/><feColorMatrix values="0 0 0 0 0 0 0 0 0 0 0 0 0 0 0 0 0 0 0.25 0"/><feBlend in2="BackgroundImageFix" result="effect1_dropShadow_2265_1077"/><feBlend in="SourceGraphic" in2="effect1_dropShadow_2265_1077" result="shape"/></filter></defs></svg>