<svg width="70" height="20" viewBox="0 0 70 20" fill="none" xmlns="http://www.w3.org/2000/svg"><rect width="5.012" height="8.832" rx="1.057" transform="rotate(44.744 3.126 13.844)skewX(.013)" fill="url(#a)"/><g filter="url(#b)"><rect x="8.954" y="19.609" width="5.012" height="8.812" rx="1.057" transform="rotate(-135.262 8.954 19.61)" fill="url(#c)"/></g><rect width="5.03" height="3.748" rx="1.057" transform="rotate(44.744 -9.14 8.826)skewX(.013)" fill="url(#d)"/><rect x="16.03" y="12.428" width="5.034" height="3.775" rx="1.057" transform="rotate(-135.262 16.03 12.428)" fill="url(#e)"/><path d="M23.103 14.519v-8.04h1.837v1.34h.084q.22-.696.753-1.073.54-.381 1.23-.382.157 0 .351.016.2.01.33.036V8.16a2 2 0 0 0-.382-.073 3.5 3.5 0 0 0-.498-.037q-.517 0-.931.226-.408.219-.644.612a1.73 1.73 0 0 0-.235.905v4.727zm9.072.157q-1.21 0-2.089-.503a3.4 3.4 0 0 1-1.345-1.434q-.47-.931-.47-2.193 0-1.24.47-2.177a3.56 3.56 0 0 1 1.33-1.466q.852-.528 2.004-.528.744 0 1.403.24a3.2 3.2 0 0 1 1.172.733q.513.498.806 1.267.294.764.293 1.821v.581h-6.59V9.74h4.774a2.04 2.04 0 0 0-.235-.968 1.7 1.7 0 0 0-.644-.675 1.8 1.8 0 0 0-.953-.246q-.58 0-1.02.282-.44.278-.686.733-.24.45-.246.99v1.114q0 .701.256 1.204.256.497.717.764.462.262 1.079.262.413 0 .748-.115.335-.12.581-.351a1.46 1.46 0 0 0 .372-.57l1.769.198a2.76 2.76 0 0 1-.639 1.225q-.465.518-1.193.806-.728.283-1.664.283m8.684 0q-1.204 0-2.068-.53a3.53 3.53 0 0 1-1.324-1.46q-.46-.936-.46-2.156 0-1.224.47-2.161a3.5 3.5 0 0 1 1.33-1.466q.864-.528 2.041-.528.979 0 1.733.36a2.96 2.96 0 0 1 1.209 1.01q.45.65.513 1.519h-1.811a1.73 1.73 0 0 0-.523-.969q-.409-.392-1.094-.392a1.7 1.7 0 0 0-1.021.314q-.44.309-.686.89-.24.58-.24 1.392 0 .822.24 1.413.24.586.675.906.44.314 1.032.314.418 0 .748-.157.335-.163.56-.466t.309-.738h1.81a3.16 3.16 0 0 1-.502 1.512q-.435.656-1.182 1.026-.75.366-1.76.367m8.506 0q-1.177 0-2.041-.519a3.5 3.5 0 0 1-1.34-1.45q-.47-.93-.47-2.177 0-1.245.47-2.182a3.5 3.5 0 0 1 1.34-1.455q.864-.518 2.041-.518t2.041.518 1.335 1.455q.476.937.476 2.182t-.476 2.178a3.5 3.5 0 0 1-1.334 1.45q-.864.518-2.042.518m.01-1.518q.639 0 1.068-.35.43-.357.639-.953.215-.597.215-1.33 0-.738-.215-1.335a2.1 2.1 0 0 0-.639-.957q-.43-.356-1.067-.356-.655 0-1.089.356a2.15 2.15 0 0 0-.644.957q-.21.597-.209 1.335 0 .733.21 1.33.213.596.643.952.435.35 1.089.35m5.45 1.36V6.48h1.838v1.34h.083q.22-.696.754-1.073.54-.381 1.23-.382.158 0 .35.016.2.01.33.036V8.16a2 2 0 0 0-.382-.073 3.5 3.5 0 0 0-.497-.037q-.518 0-.931.226-.409.219-.644.612a1.73 1.73 0 0 0-.236.905v4.727zm8.496.142a3.04 3.04 0 0 1-1.695-.487q-.75-.486-1.183-1.413-.435-.927-.435-2.25 0-1.341.44-2.262.445-.926 1.199-1.397a3.1 3.1 0 0 1 1.68-.476q.706 0 1.162.24.455.236.722.57.267.33.413.624h.079v-4.01h1.9v10.72H65.74v-1.267h-.116a3.2 3.2 0 0 1-.424.623q-.277.324-.732.555-.456.23-1.147.23m.53-1.555q.6 0 1.025-.324.423-.33.644-.916.22-.586.22-1.366t-.22-1.356q-.214-.575-.639-.895-.419-.318-1.03-.319-.635 0-1.058.33t-.639.91q-.214.582-.214 1.33 0 .753.214 1.345.22.586.644.926.43.335 1.052.335" fill="#121212"/><defs><linearGradient id="a" x1="2.462" y1="-.048" x2="2.462" y2="10.689" gradientUnits="userSpaceOnUse"><stop stop-color="#EB7C49"/><stop offset="1" stop-color="#F04F52"/></linearGradient><linearGradient id="c" x1="11.416" y1="19.561" x2="11.416" y2="30.275" gradientUnits="userSpaceOnUse"><stop stop-color="#EB7C49"/><stop offset="1" stop-color="#F04F52"/></linearGradient><linearGradient id="d" x1="2.471" y1="-.021" x2="2.471" y2="4.536" gradientUnits="userSpaceOnUse"><stop stop-color="#EB7C49"/><stop offset="1" stop-color="#F04F52"/></linearGradient><linearGradient id="e" x1="18.503" y1="12.407" x2="18.503" y2="16.997" gradientUnits="userSpaceOnUse"><stop stop-color="#EB7C49"/><stop offset="1" stop-color="#F04F52"/></linearGradient><filter id="b" x="5.706" y="10.261" width="9.138" height="9.163" filterUnits="userSpaceOnUse" color-interpolation-filters="sRGB"><feFlood flood-opacity="0" result="BackgroundImageFix"/><feColorMatrix in="SourceAlpha" values="0 0 0 0 0 0 0 0 0 0 0 0 0 0 0 0 0 0 127 0" result="hardAlpha"/><feOffset dy=".126"/><feGaussianBlur stdDeviation=".063"/><feComposite in2="hardAlpha" operator="out"/><feColorMatrix values="0 0 0 0 0 0 0 0 0 0 0 0 0 0 0 0 0 0 0.25 0"/><feBlend in2="BackgroundImageFix" result="effect1_dropShadow_2265_393"/><feBlend in="SourceGraphic" in2="effect1_dropShadow_2265_393" result="shape"/></filter></defs></svg>