<svg
    width="11"
    height="11"
    viewBox="0 0 11 11"
    fill="none"
    xmlns="http://www.w3.org/2000/svg"
>
    <path
        fill-rule="evenodd"
        clip-rule="evenodd"
        d="M7.94513 7.33397C8.74331 7.33397 9.42293 7.84429 9.67473 8.5563H10.3898C10.5519 8.5563 10.7073 8.62069 10.8219 8.7353C10.9366 8.84992 11.001 9.00537 11.001 9.16746C11.001 9.32955 10.9366 9.485 10.8219 9.59962C10.7073 9.71423 10.5519 9.77862 10.3898 9.77862H9.67473C9.54846 10.1365 9.3143 10.4464 9.00452 10.6656C8.69475 10.8847 8.32461 11.0025 7.94513 11.0025C7.56565 11.0025 7.19552 10.8847 6.88574 10.6656C6.57597 10.4464 6.34181 10.1365 6.21554 9.77862H0.611164C0.449073 9.77862 0.293621 9.71423 0.179006 9.59962C0.0643903 9.485 0 9.32955 0 9.16746C0 9.00537 0.0643903 8.84992 0.179006 8.7353C0.293621 8.62069 0.449073 8.5563 0.611164 8.5563H6.21554C6.34206 8.19872 6.57632 7.88916 6.88608 7.67026C7.19583 7.45135 7.56583 7.33386 7.94513 7.33397ZM7.94513 8.5563C7.78304 8.5563 7.62759 8.62069 7.51297 8.7353C7.39836 8.84992 7.33397 9.00537 7.33397 9.16746C7.33397 9.32955 7.39836 9.485 7.51297 9.59962C7.62759 9.71423 7.78304 9.77862 7.94513 9.77862C8.10722 9.77862 8.26268 9.71423 8.37729 9.59962C8.49191 9.485 8.5563 9.32955 8.5563 9.16746C8.5563 9.00537 8.49191 8.84992 8.37729 8.7353C8.26268 8.62069 8.10722 8.5563 7.94513 8.5563ZM3.05582 3.66698C3.41579 3.66694 3.76781 3.77285 4.06799 3.97152C4.36817 4.17019 4.60323 4.45283 4.74386 4.78419L4.7848 4.88931H10.3898C10.5456 4.88948 10.6954 4.94913 10.8087 5.05607C10.9219 5.163 10.9901 5.30915 10.9992 5.46466C11.0084 5.62016 10.9578 5.77329 10.8578 5.89274C10.7578 6.0122 10.616 6.08896 10.4613 6.10736L10.3898 6.11164H4.78541C4.6622 6.46018 4.43655 6.76335 4.13803 6.9814C3.83951 7.19946 3.48207 7.32221 3.11257 7.33358C2.74307 7.34494 2.37876 7.24439 2.0674 7.04509C1.75605 6.8458 1.51218 6.55707 1.36779 6.21676L1.32623 6.11164H0.611164C0.455391 6.11147 0.305562 6.05182 0.192292 5.94489C0.0790208 5.83795 0.0108573 5.6918 0.0017283 5.53629C-0.00740073 5.38079 0.0431938 5.22767 0.143174 5.10821C0.243155 4.98876 0.384975 4.91199 0.539658 4.89359L0.611164 4.88931H1.32623C1.45274 4.53174 1.68701 4.22218 1.99676 4.00327C2.30652 3.78436 2.67652 3.66687 3.05582 3.66698ZM3.05582 4.88931C2.89373 4.88931 2.73828 4.9537 2.62366 5.06832C2.50905 5.18293 2.44466 5.33839 2.44466 5.50048C2.44466 5.66257 2.50905 5.81802 2.62366 5.93263C2.73828 6.04725 2.89373 6.11164 3.05582 6.11164C3.21791 6.11164 3.37336 6.04725 3.48798 5.93263C3.60259 5.81802 3.66698 5.66257 3.66698 5.50048C3.66698 5.33839 3.60259 5.18293 3.48798 5.06832C3.37336 4.9537 3.21791 4.88931 3.05582 4.88931ZM7.94513 7.63745e-08C8.74331 7.63745e-08 9.42293 0.510322 9.67473 1.22233H10.3898C10.5519 1.22233 10.7073 1.28672 10.8219 1.40133C10.9366 1.51595 11.001 1.6714 11.001 1.83349C11.001 1.99558 10.9366 2.15103 10.8219 2.26565C10.7073 2.38027 10.5519 2.44466 10.3898 2.44466H9.67473C9.54846 2.80251 9.3143 3.11239 9.00452 3.33158C8.69475 3.55077 8.32461 3.66848 7.94513 3.66848C7.56565 3.66848 7.19552 3.55077 6.88574 3.33158C6.57597 3.11239 6.34181 2.80251 6.21554 2.44466H0.611164C0.449073 2.44466 0.293621 2.38027 0.179006 2.26565C0.0643903 2.15103 0 1.99558 0 1.83349C0 1.6714 0.0643903 1.51595 0.179006 1.40133C0.293621 1.28672 0.449073 1.22233 0.611164 1.22233H6.21554C6.34206 0.864751 6.57632 0.555194 6.88608 0.336287C7.19583 0.11738 7.56583 -0.000109354 7.94513 7.63745e-08ZM7.94513 1.22233C7.78304 1.22233 7.62759 1.28672 7.51297 1.40133C7.39836 1.51595 7.33397 1.6714 7.33397 1.83349C7.33397 1.99558 7.39836 2.15103 7.51297 2.26565C7.62759 2.38027 7.78304 2.44466 7.94513 2.44466C8.10722 2.44466 8.26268 2.38027 8.37729 2.26565C8.49191 2.15103 8.5563 1.99558 8.5563 1.83349C8.5563 1.6714 8.49191 1.51595 8.37729 1.40133C8.26268 1.28672 8.10722 1.22233 7.94513 1.22233Z"
        fill="url(#paint0_linear_358_5233)"
    />
    <defs>
        <linearGradient
            id="paint0_linear_358_5233"
            x1="5.40515"
            y1="-0.0603956"
            x2="5.40515"
            y2="13.3168"
            gradientUnits="userSpaceOnUse"
        >
            <stop stop-color="#EB7C49" />
            <stop offset="1" stop-color="#F04F52" />
        </linearGradient>
    </defs>
</svg>