<svg
    width="12"
    height="12"
    viewBox="0 0 12 12"
    fill="none"
    xmlns="http://www.w3.org/2000/svg"
>
    <mask
        id="mask0_358_5243"
        style="mask-type:luminance"
        maskUnits="userSpaceOnUse"
        x="0"
        y="0"
        width="12"
        height="12"
    >
        <path d="M0 0H12V12H0V0Z" fill="white" />
    </mask>
    <g mask="url(#mask0_358_5243)">
        <path
            fill-rule="evenodd"
            clip-rule="evenodd"
            d="M11.6475 1.14745C11.7469 1.04081 11.801 0.89978 11.7984 0.754054C11.7959 0.608328 11.7368 0.469289 11.6338 0.36623C11.5307 0.26317 11.3917 0.204136 11.2459 0.201565C11.1002 0.198994 10.9592 0.253086 10.8525 0.352446L9.88505 1.31995C9.27226 0.893728 8.52915 0.696483 7.78566 0.762702C7.04216 0.828921 6.34561 1.15439 5.81779 1.6822L5.3828 2.1172C5.24824 2.25192 5.17266 2.43454 5.17266 2.62495C5.17266 2.81535 5.24824 2.99798 5.3828 3.1327L8.8673 6.6172C9.00202 6.75175 9.18464 6.82733 9.37504 6.82733C9.56545 6.82733 9.74808 6.75175 9.8828 6.6172L10.3178 6.1822C10.8457 5.65448 11.1713 4.95797 11.2377 4.21447C11.304 3.47098 11.1069 2.72781 10.6808 2.11495L11.6475 1.14745ZM5.27255 4.85245C5.37788 4.95791 5.43705 5.10088 5.43705 5.24995C5.43705 5.39901 5.37788 5.54198 5.27255 5.64745L4.33505 6.58495L5.41504 7.66495L6.35255 6.72745C6.45918 6.62809 6.60021 6.57399 6.74594 6.57656C6.89166 6.57914 7.0307 6.63817 7.13376 6.74123C7.23682 6.84429 7.29586 6.98333 7.29843 7.12905C7.301 7.27478 7.2469 7.41581 7.14754 7.52245L6.21004 8.45995L6.6173 8.8672C6.75185 9.00192 6.82743 9.18454 6.82743 9.37495C6.82743 9.56535 6.75185 9.74798 6.6173 9.8827L6.18229 10.3177C5.65457 10.8456 4.95807 11.1712 4.21457 11.2376C3.47108 11.3039 2.72791 11.1068 2.11505 10.6807L1.14755 11.6482C1.04141 11.7506 0.899293 11.8072 0.751807 11.8059C0.604321 11.8045 0.463266 11.7453 0.359023 11.641C0.25478 11.5366 0.195689 11.3955 0.194477 11.248C0.193265 11.1005 0.25003 10.9585 0.352545 10.8524L1.32005 9.88495C0.893827 9.27216 0.696582 8.52905 0.762801 7.78556C0.829021 7.04207 1.15449 6.34551 1.6823 5.8177L2.1173 5.3827C2.25202 5.24814 2.43464 5.17256 2.62505 5.17256C2.81545 5.17256 2.99808 5.24814 3.1328 5.3827L3.54004 5.78995L4.47754 4.85245C4.58301 4.74711 4.72598 4.68794 4.87504 4.68794C5.02411 4.68794 5.16708 4.74711 5.27255 4.85245ZM2.62505 6.46495L2.4773 6.6127C2.09776 6.99978 1.88634 7.52102 1.88901 8.06313C1.89168 8.60523 2.10821 9.12437 2.49154 9.5077C2.87487 9.89103 3.39401 10.1076 3.93611 10.1102C4.47822 10.1129 4.99946 9.90149 5.38655 9.52195L5.5343 9.3742L2.62505 6.4657V6.46495ZM9.52279 5.3857L9.37504 5.53345L6.4658 2.62495L6.61354 2.4772C7.00063 2.09766 7.52187 1.88624 8.06398 1.88891C8.60608 1.89158 9.12522 2.10811 9.50855 2.49144C9.89188 2.87477 10.1084 3.39391 10.1111 3.93601C10.1137 4.47812 9.90233 4.99861 9.52279 5.3857Z"
            fill="#CBCBCB"
        />
    </g>
</svg>