<svg
    width="11"
    height="13"
    viewBox="0 0 11 13"
    fill="none"
    xmlns="http://www.w3.org/2000/svg"
>
    <path
        d="M4.36702 0.763801C4.45833 0.538129 4.61494 0.344865 4.8168 0.208783C5.01866 0.0727005 5.25656 0 5.5 0C5.74344 0 5.98134 0.0727005 6.1832 0.208783C6.38506 0.344865 6.54168 0.538129 6.63298 0.763801C7.53665 1.01233 8.33375 1.55063 8.90186 2.29604C9.46996 3.04144 9.77767 3.95274 9.77771 4.88995V7.7603L10.8972 9.4396C10.9586 9.53163 10.9939 9.63861 10.9993 9.74911C11.0046 9.85962 10.9799 9.96951 10.9277 10.0671C10.8755 10.1646 10.7978 10.2462 10.7029 10.303C10.608 10.3599 10.4994 10.3899 10.3888 10.3899H7.61747C7.54389 10.899 7.28934 11.3645 6.90046 11.7013C6.51158 12.038 6.0144 12.2233 5.5 12.2233C4.9856 12.2233 4.48842 12.038 4.09954 11.7013C3.71066 11.3645 3.45611 10.899 3.38254 10.3899H0.611193C0.500557 10.3899 0.391992 10.3599 0.297081 10.303C0.20217 10.2462 0.124472 10.1646 0.0722784 10.0671C0.0200844 9.96951 -0.00464788 9.85962 0.000719785 9.74911C0.00608745 9.63861 0.0413538 9.53163 0.102756 9.4396L1.22229 7.7603V4.88995C1.22229 2.91977 2.55449 1.26002 4.36702 0.763801ZM4.6359 10.3899C4.69902 10.5687 4.81605 10.7236 4.97086 10.8331C5.12568 10.9426 5.31066 11.0015 5.50031 11.0015C5.68995 11.0015 5.87493 10.9426 6.02975 10.8331C6.18457 10.7236 6.30159 10.5687 6.36471 10.3899H4.6359ZM5.5 1.83445C4.68963 1.83445 3.91245 2.15637 3.33943 2.72939C2.76641 3.30241 2.4445 4.07958 2.4445 4.88995V7.94546C2.44452 8.06617 2.4088 8.18419 2.34183 8.28462L1.75334 9.16766H9.24605L8.65756 8.28462C8.59081 8.18412 8.5553 8.06611 8.5555 7.94546V4.88995C8.5555 4.07958 8.23359 3.30241 7.66057 2.72939C7.08755 2.15637 6.31037 1.83445 5.5 1.83445Z"
        fill="#CBCBCB"
    />
</svg>