<svg width="70" height="21" viewBox="0 0 70 21" fill="none" xmlns="http://www.w3.org/2000/svg"><rect width="5.013" height="8.835" rx="1.058" transform="rotate(44.744 2.153 13.116)skewX(.013)" fill="#fff"/><g filter="url(#a)"><rect x="8.16" y="20.09" width="5.013" height="8.815" rx="1.058" transform="rotate(-135.262 8.16 20.09)" fill="#fff"/></g><rect width="5.032" height="3.749" rx="1.058" transform="rotate(44.744 -10.118 8.098)skewX(.013)" fill="#fff"/><rect x="15.239" y="12.905" width="5.035" height="3.776" rx="1.058" transform="rotate(-135.262 15.239 12.905)" fill="#fff"/><path d="M22.039 14.911V6.87H24.2v1.403h.084q.219-.749.738-1.13a1.94 1.94 0 0 1 1.194-.388 3.4 3.4 0 0 1 .701.079v1.979a3 3 0 0 0-.434-.084 4 4 0 0 0-.508-.037q-.493 0-.88.215a1.6 1.6 0 0 0-.607.586q-.22.377-.22.87v4.55zm9.323.157q-1.241 0-2.136-.502a3.44 3.44 0 0 1-1.372-1.435q-.482-.932-.482-2.204 0-1.24.482-2.178a3.56 3.56 0 0 1 1.356-1.46q.88-.525 2.063-.525.795 0 1.482.257.69.251 1.204.76.518.507.806 1.277.288.765.288 1.79v.613h-6.79v-1.382h4.69q0-.482-.209-.854a1.5 1.5 0 0 0-.581-.58 1.66 1.66 0 0 0-.853-.216q-.51 0-.901.236-.387.23-.607.623a1.76 1.76 0 0 0-.226.864v1.314q0 .597.22 1.032.225.435.634.67.408.235.968.235.372 0 .681-.104.309-.105.529-.315t.335-.513l2.063.136q-.158.744-.644 1.299a3.2 3.2 0 0 1-1.246.858q-.76.304-1.754.304m8.78 0q-1.236 0-2.126-.523a3.54 3.54 0 0 1-1.36-1.466q-.472-.937-.472-2.157 0-1.236.476-2.168a3.54 3.54 0 0 1 1.367-1.46q.884-.53 2.105-.53 1.051 0 1.843.383.79.381 1.25 1.073.462.69.509 1.623h-2.105q-.09-.601-.471-.969-.377-.37-.99-.371-.517 0-.906.282-.381.278-.596.812-.216.534-.215 1.293 0 .77.21 1.31.214.539.601.821.388.283.906.283.383 0 .686-.157.309-.157.508-.456.204-.303.267-.728h2.105q-.053.922-.503 1.624a3.04 3.04 0 0 1-1.23 1.088q-.785.393-1.859.393m8.653 0q-1.22 0-2.11-.518a3.55 3.55 0 0 1-1.366-1.456q-.482-.937-.482-2.172 0-1.246.482-2.178a3.5 3.5 0 0 1 1.366-1.456q.89-.524 2.11-.524t2.105.524q.89.518 1.372 1.456.48.93.481 2.178 0 1.235-.481 2.172A3.54 3.54 0 0 1 50.9 14.55q-.885.518-2.105.518m.01-1.728q.556 0 .927-.314.372-.319.56-.869.195-.549.194-1.251 0-.702-.193-1.251-.19-.55-.56-.87-.372-.319-.927-.319-.56 0-.943.32-.377.318-.57.869a3.9 3.9 0 0 0-.189 1.25q0 .703.189 1.252.193.55.57.87.383.313.943.313m5.399 1.571V6.87h2.162v1.403h.084q.219-.749.738-1.13a1.94 1.94 0 0 1 1.194-.388 3.4 3.4 0 0 1 .701.079v1.979a3 3 0 0 0-.434-.084 4 4 0 0 0-.508-.037q-.492 0-.88.215a1.6 1.6 0 0 0-.607.586q-.22.377-.22.87v4.55zm8.621.131q-.916 0-1.66-.471-.737-.477-1.172-1.398-.43-.927-.43-2.272 0-1.383.446-2.299.444-.921 1.183-1.377a3.03 3.03 0 0 1 1.628-.46q.675 0 1.126.23.455.225.733.565.282.336.43.66h.067V4.189h2.225V14.91h-2.199v-1.288h-.094a3 3 0 0 1-.445.665 2.2 2.2 0 0 1-.738.54q-.45.214-1.1.214m.707-1.775q.54 0 .911-.293.377-.298.576-.832.204-.534.204-1.252 0-.717-.199-1.246-.198-.528-.576-.817-.375-.288-.916-.288-.55 0-.926.299a1.8 1.8 0 0 0-.571.827q-.195.528-.194 1.225 0 .702.194 1.241.199.534.57.838.377.298.927.298" fill="#fff"/><defs><filter id="a" x="4.911" y="10.737" width="9.141" height="9.166" filterUnits="userSpaceOnUse" color-interpolation-filters="sRGB"><feFlood flood-opacity="0" result="BackgroundImageFix"/><feColorMatrix in="SourceAlpha" values="0 0 0 0 0 0 0 0 0 0 0 0 0 0 0 0 0 0 127 0" result="hardAlpha"/><feOffset dy=".126"/><feGaussianBlur stdDeviation=".063"/><feComposite in2="hardAlpha" operator="out"/><feColorMatrix values="0 0 0 0 0 0 0 0 0 0 0 0 0 0 0 0 0 0 0.25 0"/><feBlend in2="BackgroundImageFix" result="effect1_dropShadow_2265_247"/><feBlend in="SourceGraphic" in2="effect1_dropShadow_2265_247" result="shape"/></filter></defs></svg>