<svg width="18" height="18" viewBox="0 0 18 18" fill="none" xmlns="http://www.w3.org/2000/svg"><circle cx="9.152" cy="8.879" r="8.738" fill="url(#a)"/><path d="M5.027 5.662a.382.382 0 0 1 .319-.594h1.698c.174 0 .338.092.426.241l1.065 1.774c-.75.095-1.42.445-1.918.962zm7.83 0-1.589 2.383a3.22 3.22 0 0 0-1.918-.962l1.065-1.774a.5.5 0 0 1 .426-.24h1.699a.382.382 0 0 1 .318.593zm-6.65 4.63a2.736 2.736 0 1 1 5.471 0 2.736 2.736 0 0 1-5.472 0m2.866-1.476a.145.145 0 0 0-.261 0l-.348.706a.14.14 0 0 1-.11.08l-.78.113a.146.146 0 0 0-.08.249l.564.55c.034.034.05.08.042.129l-.134.775c-.02.119.104.21.212.154l.696-.366a.15.15 0 0 1 .135 0l.697.366a.146.146 0 0 0 .211-.153l-.134-.776a.15.15 0 0 1 .042-.13l.565-.55a.146.146 0 0 0-.081-.248L9.53 9.6a.14.14 0 0 1-.109-.079z" fill="#fff"/><defs><linearGradient id="a" x1="9.001" y1=".045" x2="9.001" y2="21.294" gradientUnits="userSpaceOnUse"><stop stop-color="#EB7C49"/><stop offset="1" stop-color="#F04F52"/></linearGradient></defs></svg>