<svg xmlns="http://www.w3.org/2000/svg" width="10" height="10" fill="currentColor" class="bi bi-gem" viewBox="0 0 10 10"><path d="M1.938.438a.31.31 0 0 1 .25-.125h5.625a.31.31 0 0 1 .25.125l1.86 2.484a.33.33 0 0 1 .006.403L5.25 9.563a.313.313 0 0 1-.5 0L.063 3.313a.31.31 0 0 1 0-.375zm7.116 2.366L7.925 1.298 7.44 2.806zm-2.271.003L7.384.939H2.616l.602 1.872zm-3.364.627L5 8.354l1.583-4.923zm-.857-.624-.488-1.514L.938 2.812zm-1.625.628 3.196 4.261-1.37-4.263zm4.931 4.261L9.07 3.43l-1.83.001z"/></svg>