<svg width="29" height="29" viewBox="0 0 29 29" fill="none" xmlns="http://www.w3.org/2000/svg">
    <circle cx="14.1194" cy="14.4744" r="13.904" fill="#ECECEC" />
    <path
        d="M10.1758 14.8592H18.0635V16.3405H18.833V14.0896H14.5044V12.5506H13.7349V14.0896H9.40625V16.3405H10.1758V14.8592Z"
        fill="#C7C7C7" />
    <path
        d="M12.1958 16.8792H7.38623C6.85498 16.8792 6.42432 17.3098 6.42432 17.8411V20.7268C6.42432 21.2581 6.85498 21.6887 7.38623 21.6887H12.1958C12.727 21.6887 13.1577 21.2581 13.1577 20.7268V17.8411C13.1577 17.3098 12.727 16.8792 12.1958 16.8792Z"
        fill="#C7C7C7" />
    <path
        d="M20.8525 16.8792H16.043C15.5117 16.8792 15.0811 17.3098 15.0811 17.8411V20.7268C15.0811 21.2581 15.5117 21.6887 16.043 21.6887H20.8525C21.3838 21.6887 21.8144 21.2581 21.8144 20.7268V17.8411C21.8144 17.3098 21.3838 16.8792 20.8525 16.8792Z"
        fill="#C7C7C7" />
    <path
        d="M16.5239 7.26004H11.7144C11.1831 7.26004 10.7524 7.6907 10.7524 8.22195V11.1077C10.7524 11.6389 11.1831 12.0696 11.7144 12.0696H16.5239C17.0552 12.0696 17.4858 11.6389 17.4858 11.1077V8.22195C17.4858 7.6907 17.0552 7.26004 16.5239 7.26004Z"
        fill="#C7C7C7" />
</svg>
    