<svg width="12" height="11" viewBox="0 0 12 11" fill="none" xmlns="http://www.w3.org/2000/svg">
    <path
        d="M10.0212 8.02757C9.78009 8.02185 9.57851 7.92476 9.41649 7.73631C9.25447 7.54786 9.17639 7.32675 9.18224 7.073L9.25912 3.49455L2.3857 10.397C2.21104 10.5724 2.00796 10.6574 1.77647 10.6519C1.54498 10.6464 1.34616 10.5519 1.18002 10.3685C1.01306 10.185 0.932202 9.9716 0.937427 9.72839C0.942652 9.48519 1.03259 9.2763 1.20723 9.10175L8.08065 2.19925L4.64444 2.11776C4.40331 2.11205 4.20162 2.02003 4.03938 1.84171C3.87715 1.66339 3.79895 1.44777 3.80478 1.19486C3.81022 0.941522 3.89781 0.729628 4.06754 0.559181C4.23727 0.388733 4.4425 0.306575 4.68322 0.312705L10.1992 0.443512C10.3198 0.446371 10.4274 0.472579 10.522 0.522138C10.6167 0.571696 10.7031 0.639858 10.7812 0.726624C10.8598 0.812977 10.9205 0.906935 10.9634 1.00849C11.0062 1.11005 11.0265 1.22396 11.0242 1.35022L10.899 7.17708C10.894 7.40931 10.8068 7.61044 10.6375 7.78047C10.4682 7.95051 10.2628 8.03287 10.0212 8.02757Z"
        fill="#4CC46F" />
</svg>
    