<svg width="174" height="171" viewBox="0 0 174 171" fill="none" xmlns="http://www.w3.org/2000/svg">
    <rect x="0.000488281" y="0.244324" width="174" height="170.56" rx="8.7416" fill="white"
        fill-opacity="0.08" />
    <rect x="0.125368" y="0.369204" width="173.75" height="170.311" rx="8.61672" stroke="#121212"
        stroke-opacity="0.3" stroke-width="0.24976" />
    <path
        d="M7.95428 158.436V154.056H8.47993V155.99H10.7515V154.056H11.2771V158.436H10.7515V156.421H8.47993V158.436H7.95428ZM13.5844 158.511C13.2924 158.511 13.0296 158.445 12.796 158.311C12.5623 158.178 12.3767 157.99 12.239 157.748C12.1055 157.502 12.0388 157.214 12.0388 156.884C12.0388 156.555 12.1076 156.269 12.2453 156.027C12.3829 155.781 12.5686 155.591 12.8022 155.458C13.04 155.324 13.3049 155.257 13.5969 155.257C13.889 155.257 14.1518 155.324 14.3854 155.458C14.619 155.591 14.8026 155.781 14.9361 156.027C15.0738 156.269 15.1426 156.555 15.1426 156.884C15.1426 157.214 15.0738 157.502 14.9361 157.748C14.7984 157.99 14.6107 158.178 14.3729 158.311C14.1393 158.445 13.8765 158.511 13.5844 158.511ZM13.5844 158.061C13.7638 158.061 13.9307 158.017 14.085 157.929C14.2394 157.842 14.3646 157.71 14.4605 157.535C14.5565 157.36 14.6044 157.143 14.6044 156.884C14.6044 156.626 14.5565 156.409 14.4605 156.234C14.3687 156.058 14.2457 155.927 14.0913 155.839C13.9369 155.752 13.7722 155.708 13.5969 155.708C13.4176 155.708 13.2507 155.752 13.0963 155.839C12.942 155.927 12.8168 156.058 12.7209 156.234C12.6249 156.409 12.5769 156.626 12.5769 156.884C12.5769 157.143 12.6249 157.36 12.7209 157.535C12.8168 157.71 12.9399 157.842 13.0901 157.929C13.2444 158.017 13.4092 158.061 13.5844 158.061ZM16.3831 158.436L15.4758 155.332H16.0014L16.6585 157.767L17.3844 155.332H17.9789L18.711 157.767L19.3618 155.332H19.8937L18.9864 158.436H18.4482L17.6848 155.877L16.9213 158.436H16.3831ZM22.4503 154.644C22.3461 154.644 22.2584 154.611 22.1875 154.544C22.1208 154.473 22.0874 154.385 22.0874 154.281C22.0874 154.181 22.1208 154.098 22.1875 154.031C22.2584 153.964 22.3461 153.931 22.4503 153.931C22.5505 153.931 22.636 153.964 22.7069 154.031C22.7778 154.098 22.8133 154.181 22.8133 154.281C22.8133 154.385 22.7778 154.473 22.7069 154.544C22.636 154.611 22.5505 154.644 22.4503 154.644ZM22.1875 158.436V155.332H22.7132V158.436H22.1875ZM24.8549 158.436C24.5712 158.436 24.3481 158.367 24.1854 158.23C24.0227 158.092 23.9413 157.844 23.9413 157.485V155.777H23.4031V155.332H23.9413L24.0101 154.588H24.467V155.332H25.3806V155.777H24.467V157.485C24.467 157.681 24.5066 157.815 24.5858 157.886C24.6651 157.952 24.8049 157.986 25.0051 157.986H25.3305V158.436H24.8549ZM28.3303 158.436L27.4229 155.332H27.9485L28.6056 157.767L29.3315 155.332H29.926L30.6581 157.767L31.3089 155.332H31.8408L30.9335 158.436H30.3953L29.6319 155.877L28.8684 158.436H28.3303ZM33.7204 158.511C33.4283 158.511 33.1655 158.445 32.9319 158.311C32.6983 158.178 32.5126 157.99 32.375 157.748C32.2415 157.502 32.1747 157.214 32.1747 156.884C32.1747 156.555 32.2435 156.269 32.3812 156.027C32.5189 155.781 32.7045 155.591 32.9381 155.458C33.1759 155.324 33.4409 155.257 33.7329 155.257C34.0249 155.257 34.2877 155.324 34.5214 155.458C34.755 155.591 34.9385 155.781 35.072 156.027C35.2097 156.269 35.2785 156.555 35.2785 156.884C35.2785 157.214 35.2097 157.502 35.072 157.748C34.9344 157.99 34.7466 158.178 34.5088 158.311C34.2752 158.445 34.0124 158.511 33.7204 158.511ZM33.7204 158.061C33.8998 158.061 34.0666 158.017 34.221 157.929C34.3753 157.842 34.5005 157.71 34.5964 157.535C34.6924 157.36 34.7404 157.143 34.7404 156.884C34.7404 156.626 34.6924 156.409 34.5964 156.234C34.5047 156.058 34.3816 155.927 34.2272 155.839C34.0729 155.752 33.9081 155.708 33.7329 155.708C33.5535 155.708 33.3866 155.752 33.2323 155.839C33.0779 155.927 32.9528 156.058 32.8568 156.234C32.7608 156.409 32.7129 156.626 32.7129 156.884C32.7129 157.143 32.7608 157.36 32.8568 157.535C32.9528 157.71 33.0758 157.842 33.226 157.929C33.3804 158.017 33.5451 158.061 33.7204 158.061ZM36.0094 158.436V155.332H36.485L36.5288 155.927C36.6248 155.723 36.7708 155.56 36.9669 155.439C37.1629 155.318 37.4049 155.257 37.6927 155.257V155.808H37.5488C37.3653 155.808 37.1963 155.841 37.0419 155.908C36.8876 155.971 36.7645 156.079 36.6727 156.234C36.581 156.388 36.5351 156.601 36.5351 156.872V158.436H36.0094ZM38.2827 158.436V153.931H38.8084V156.64L40.0787 155.332H40.7232L39.3465 156.734L40.8985 158.436H40.2289L38.8084 156.828V158.436H38.2827ZM42.4417 158.511C42.0704 158.511 41.7617 158.418 41.5155 158.23C41.2694 158.042 41.1255 157.788 41.0838 157.466H41.6219C41.6553 157.629 41.7408 157.771 41.8785 157.892C42.0203 158.009 42.2101 158.067 42.4479 158.067C42.669 158.067 42.8317 158.021 42.936 157.929C43.0403 157.833 43.0925 157.721 43.0925 157.592C43.0925 157.404 43.0236 157.279 42.886 157.216C42.7525 157.153 42.5627 157.097 42.3165 157.047C42.1497 157.014 41.9828 156.966 41.8159 156.903C41.649 156.841 41.5093 156.753 41.3966 156.64C41.284 156.524 41.2277 156.371 41.2277 156.184C41.2277 155.912 41.3278 155.691 41.528 155.52C41.7325 155.345 42.0078 155.257 42.3541 155.257C42.6836 155.257 42.9527 155.341 43.1613 155.508C43.3741 155.67 43.4971 155.904 43.5305 156.209H43.0111C42.9903 156.05 42.9214 155.927 42.8046 155.839C42.692 155.748 42.5397 155.702 42.3478 155.702C42.1601 155.702 42.0141 155.741 41.9098 155.821C41.8096 155.9 41.7596 156.004 41.7596 156.133C41.7596 156.259 41.8242 156.357 41.9536 156.428C42.0871 156.499 42.2665 156.559 42.4917 156.609C42.6836 156.651 42.8651 156.703 43.0362 156.765C43.2114 156.824 43.3532 156.914 43.4617 157.035C43.5743 157.151 43.6306 157.322 43.6306 157.548C43.6348 157.827 43.5284 158.059 43.3115 158.242C43.0987 158.422 42.8088 158.511 42.4417 158.511ZM44.7114 157.21L44.6863 156.202H44.8803C45.114 156.202 45.3309 156.179 45.5311 156.133C45.7356 156.088 45.9003 155.998 46.0255 155.864C46.1506 155.731 46.2132 155.531 46.2132 155.264C46.2132 155.005 46.1319 154.801 45.9692 154.65C45.8106 154.5 45.6 154.425 45.3371 154.425C45.0701 154.425 44.8595 154.498 44.7051 154.644C44.5508 154.79 44.4736 154.986 44.4736 155.232H43.973C43.973 154.982 44.0293 154.763 44.1419 154.575C44.2587 154.388 44.4193 154.242 44.6238 154.137C44.8282 154.033 45.066 153.981 45.3371 153.981C45.6083 153.981 45.8482 154.033 46.0568 154.137C46.2654 154.242 46.4281 154.39 46.5449 154.582C46.6617 154.773 46.7201 155.001 46.7201 155.264C46.7201 155.572 46.6534 155.823 46.5199 156.015C46.3905 156.206 46.2091 156.346 45.9754 156.434C45.746 156.521 45.4832 156.565 45.187 156.565L45.1682 157.21H44.7114ZM44.9367 158.468C44.8324 158.468 44.7447 158.434 44.6738 158.367C44.6071 158.297 44.5737 158.211 44.5737 158.111C44.5737 158.011 44.6071 157.927 44.6738 157.861C44.7447 157.79 44.8324 157.754 44.9367 157.754C45.0409 157.754 45.1265 157.79 45.1932 157.861C45.26 157.927 45.2933 158.011 45.2933 158.111C45.2933 158.211 45.26 158.297 45.1932 158.367C45.1265 158.434 45.0409 158.468 44.9367 158.468Z"
        fill="#848484" />
    <path d="M7.49121 159.219H46.9954V159.531H7.49121V159.219Z" fill="#848484" />
    <path
        d="M103.695 158.436V154.056H104.22V158.017H106.26V158.436H103.695ZM108.212 158.511C107.916 158.511 107.653 158.445 107.424 158.311C107.194 158.173 107.013 157.984 106.879 157.742C106.75 157.5 106.685 157.214 106.685 156.884C106.685 156.559 106.75 156.275 106.879 156.033C107.008 155.787 107.188 155.597 107.417 155.464C107.651 155.326 107.92 155.257 108.225 155.257C108.525 155.257 108.784 155.326 109 155.464C109.222 155.597 109.391 155.775 109.507 155.996C109.624 156.217 109.683 156.455 109.683 156.709C109.683 156.755 109.68 156.801 109.676 156.847C109.676 156.893 109.676 156.945 109.676 157.003H107.205C107.217 157.241 107.271 157.439 107.367 157.598C107.467 157.752 107.59 157.869 107.736 157.948C107.887 158.027 108.045 158.067 108.212 158.067C108.429 158.067 108.61 158.017 108.756 157.917C108.902 157.817 109.009 157.681 109.076 157.51H109.595C109.512 157.798 109.351 158.038 109.113 158.23C108.879 158.418 108.579 158.511 108.212 158.511ZM108.212 155.702C107.962 155.702 107.739 155.779 107.542 155.933C107.351 156.083 107.24 156.305 107.211 156.597H109.163C109.151 156.317 109.055 156.098 108.875 155.939C108.696 155.781 108.475 155.702 108.212 155.702ZM111.568 158.511C111.197 158.511 110.888 158.418 110.642 158.23C110.396 158.042 110.252 157.788 110.21 157.466H110.748C110.782 157.629 110.867 157.771 111.005 157.892C111.147 158.009 111.337 158.067 111.575 158.067C111.796 158.067 111.958 158.021 112.063 157.929C112.167 157.833 112.219 157.721 112.219 157.592C112.219 157.404 112.15 157.279 112.013 157.216C111.879 157.153 111.689 157.097 111.443 157.047C111.276 157.014 111.109 156.966 110.942 156.903C110.776 156.841 110.636 156.753 110.523 156.64C110.411 156.524 110.354 156.371 110.354 156.184C110.354 155.912 110.454 155.691 110.655 155.52C110.859 155.345 111.134 155.257 111.481 155.257C111.81 155.257 112.079 155.341 112.288 155.508C112.501 155.67 112.624 155.904 112.657 156.209H112.138C112.117 156.05 112.048 155.927 111.931 155.839C111.819 155.748 111.666 155.702 111.474 155.702C111.287 155.702 111.141 155.741 111.036 155.821C110.936 155.9 110.886 156.004 110.886 156.133C110.886 156.259 110.951 156.357 111.08 156.428C111.214 156.499 111.393 156.559 111.618 156.609C111.81 156.651 111.992 156.703 112.163 156.765C112.338 156.824 112.48 156.914 112.588 157.035C112.701 157.151 112.757 157.322 112.757 157.548C112.761 157.827 112.655 158.059 112.438 158.242C112.225 158.422 111.935 158.511 111.568 158.511ZM114.697 158.511C114.326 158.511 114.017 158.418 113.771 158.23C113.525 158.042 113.381 157.788 113.339 157.466H113.877C113.911 157.629 113.996 157.771 114.134 157.892C114.276 158.009 114.466 158.067 114.703 158.067C114.924 158.067 115.087 158.021 115.191 157.929C115.296 157.833 115.348 157.721 115.348 157.592C115.348 157.404 115.279 157.279 115.141 157.216C115.008 157.153 114.818 157.097 114.572 157.047C114.405 157.014 114.238 156.966 114.071 156.903C113.904 156.841 113.765 156.753 113.652 156.64C113.539 156.524 113.483 156.371 113.483 156.184C113.483 155.912 113.583 155.691 113.783 155.52C113.988 155.345 114.263 155.257 114.61 155.257C114.939 155.257 115.208 155.341 115.417 155.508C115.63 155.67 115.753 155.904 115.786 156.209H115.267C115.246 156.05 115.177 155.927 115.06 155.839C114.947 155.748 114.795 155.702 114.603 155.702C114.416 155.702 114.27 155.741 114.165 155.821C114.065 155.9 114.015 156.004 114.015 156.133C114.015 156.259 114.08 156.357 114.209 156.428C114.343 156.499 114.522 156.559 114.747 156.609C114.939 156.651 115.121 156.703 115.292 156.765C115.467 156.824 115.609 156.914 115.717 157.035C115.83 157.151 115.886 157.322 115.886 157.548C115.89 157.827 115.784 158.059 115.567 158.242C115.354 158.422 115.064 158.511 114.697 158.511Z"
        fill="#626262" />
    <path
        d="M151.668 158.436V154.056H152.281L153.858 157.11L155.423 154.056H156.042V158.436H155.517V154.995L154.052 157.811H153.658L152.194 155.001V158.436H151.668ZM158.349 158.511C158.057 158.511 157.795 158.445 157.561 158.311C157.327 158.178 157.142 157.99 157.004 157.748C156.87 157.502 156.804 157.214 156.804 156.884C156.804 156.555 156.873 156.269 157.01 156.027C157.148 155.781 157.334 155.591 157.567 155.458C157.805 155.324 158.07 155.257 158.362 155.257C158.654 155.257 158.917 155.324 159.15 155.458C159.384 155.591 159.568 155.781 159.701 156.027C159.839 156.269 159.908 156.555 159.908 156.884C159.908 157.214 159.839 157.502 159.701 157.748C159.563 157.99 159.376 158.178 159.138 158.311C158.904 158.445 158.641 158.511 158.349 158.511ZM158.349 158.061C158.529 158.061 158.696 158.017 158.85 157.929C159.004 157.842 159.13 157.71 159.225 157.535C159.321 157.36 159.369 157.143 159.369 156.884C159.369 156.626 159.321 156.409 159.225 156.234C159.134 156.058 159.011 155.927 158.856 155.839C158.702 155.752 158.537 155.708 158.362 155.708C158.183 155.708 158.016 155.752 157.861 155.839C157.707 155.927 157.582 156.058 157.486 156.234C157.39 156.409 157.342 156.626 157.342 156.884C157.342 157.143 157.39 157.36 157.486 157.535C157.582 157.71 157.705 157.842 157.855 157.929C158.009 158.017 158.174 158.061 158.349 158.061ZM160.638 158.436V155.332H161.114L161.158 155.927C161.254 155.723 161.4 155.56 161.596 155.439C161.792 155.318 162.034 155.257 162.322 155.257V155.808H162.178C161.994 155.808 161.825 155.841 161.671 155.908C161.517 155.971 161.394 156.079 161.302 156.234C161.21 156.388 161.164 156.601 161.164 156.872V158.436H160.638ZM164.191 158.511C163.895 158.511 163.632 158.445 163.403 158.311C163.173 158.173 162.992 157.984 162.858 157.742C162.729 157.5 162.664 157.214 162.664 156.884C162.664 156.559 162.729 156.275 162.858 156.033C162.988 155.787 163.167 155.597 163.396 155.464C163.63 155.326 163.899 155.257 164.204 155.257C164.504 155.257 164.763 155.326 164.98 155.464C165.201 155.597 165.37 155.775 165.486 155.996C165.603 156.217 165.662 156.455 165.662 156.709C165.662 156.755 165.66 156.801 165.655 156.847C165.655 156.893 165.655 156.945 165.655 157.003H163.184C163.196 157.241 163.25 157.439 163.346 157.598C163.446 157.752 163.57 157.869 163.716 157.948C163.866 158.027 164.024 158.067 164.191 158.067C164.408 158.067 164.59 158.017 164.736 157.917C164.882 157.817 164.988 157.681 165.055 157.51H165.574C165.491 157.798 165.33 158.038 165.092 158.23C164.859 158.418 164.558 158.511 164.191 158.511ZM164.191 155.702C163.941 155.702 163.718 155.779 163.522 155.933C163.33 156.083 163.219 156.305 163.19 156.597H165.142C165.13 156.317 165.034 156.098 164.854 155.939C164.675 155.781 164.454 155.702 164.191 155.702Z"
        fill="#626262" />
    <path
        d="M35.4098 16.7828C35.3177 16.7828 35.2456 16.7568 35.1936 16.7048C35.1456 16.6527 35.1215 16.5807 35.1215 16.4886V12.7595C35.1215 12.6635 35.1476 12.5914 35.1996 12.5434C35.2517 12.4913 35.3217 12.4653 35.4098 12.4653C35.4939 12.4653 35.5579 12.4813 35.6019 12.5133C35.65 12.5414 35.694 12.5934 35.7341 12.6695L37.3073 15.6059H37.1212L38.6885 12.6695C38.7285 12.5934 38.7705 12.5414 38.8146 12.5133C38.8586 12.4813 38.9227 12.4653 39.0067 12.4653C39.0948 12.4653 39.1629 12.4913 39.2109 12.5434C39.2589 12.5914 39.283 12.6635 39.283 12.7595V16.4886C39.283 16.5807 39.2589 16.6527 39.2109 16.7048C39.1669 16.7568 39.0988 16.7828 39.0067 16.7828C38.9147 16.7828 38.8446 16.7568 38.7966 16.7048C38.7485 16.6527 38.7245 16.5807 38.7245 16.4886V13.39H38.8566L37.4635 15.9662C37.4314 16.0262 37.3974 16.0702 37.3614 16.0983C37.3254 16.1263 37.2753 16.1403 37.2113 16.1403C37.1472 16.1403 37.0952 16.1263 37.0551 16.0983C37.0151 16.0662 36.9791 16.0222 36.947 15.9662L35.5419 13.384H35.686V16.4886C35.686 16.5807 35.662 16.6527 35.614 16.7048C35.5699 16.7568 35.5019 16.7828 35.4098 16.7828ZM41.4887 16.7948C41.1925 16.7948 40.9363 16.7328 40.7201 16.6087C40.5079 16.4846 40.3418 16.3084 40.2217 16.0803C40.1016 15.8521 40.0416 15.5838 40.0416 15.2756C40.0416 15.0394 40.0756 14.8292 40.1436 14.6451C40.2117 14.4609 40.3078 14.3028 40.4319 14.1707C40.56 14.0346 40.7121 13.9325 40.8883 13.8644C41.0684 13.7924 41.2686 13.7563 41.4887 13.7563C41.781 13.7563 42.0332 13.8184 42.2454 13.9425C42.4615 14.0666 42.6297 14.2427 42.7498 14.4709C42.8699 14.6951 42.9299 14.9633 42.9299 15.2756C42.9299 15.5078 42.8959 15.718 42.8278 15.9061C42.7598 16.0943 42.6617 16.2544 42.5336 16.3865C42.4095 16.5186 42.2574 16.6207 42.0772 16.6928C41.9011 16.7608 41.7049 16.7948 41.4887 16.7948ZM41.4887 16.3265C41.6529 16.3265 41.797 16.2864 41.9211 16.2064C42.0452 16.1263 42.1413 16.0082 42.2093 15.8521C42.2814 15.6959 42.3174 15.5038 42.3174 15.2756C42.3174 14.9313 42.2414 14.6711 42.0892 14.495C41.9371 14.3188 41.7369 14.2307 41.4887 14.2307C41.3206 14.2307 41.1745 14.2708 41.0504 14.3508C40.9263 14.4269 40.8282 14.543 40.7561 14.6991C40.6881 14.8553 40.6541 15.0474 40.6541 15.2756C40.6541 15.6159 40.7301 15.8761 40.8822 16.0562C41.0344 16.2364 41.2365 16.3265 41.4887 16.3265ZM43.9113 16.7828C43.8152 16.7828 43.7412 16.7568 43.6891 16.7048C43.6371 16.6487 43.6111 16.5727 43.6111 16.4766V14.0746C43.6111 13.9745 43.6371 13.8985 43.6891 13.8464C43.7412 13.7944 43.8132 13.7684 43.9053 13.7684C44.0014 13.7684 44.0734 13.7944 44.1215 13.8464C44.1735 13.8985 44.1995 13.9745 44.1995 14.0746V14.543L44.1335 14.4349C44.2216 14.2107 44.3597 14.0426 44.5478 13.9305C44.736 13.8144 44.9522 13.7563 45.1964 13.7563C45.4286 13.7563 45.6207 13.8004 45.7728 13.8885C45.929 13.9725 46.0451 14.1026 46.1211 14.2788C46.1972 14.4509 46.2352 14.6691 46.2352 14.9333V16.4766C46.2352 16.5727 46.2092 16.6487 46.1572 16.7048C46.1051 16.7568 46.031 16.7828 45.935 16.7828C45.8349 16.7828 45.7588 16.7568 45.7068 16.7048C45.6547 16.6487 45.6287 16.5727 45.6287 16.4766V14.9693C45.6287 14.7171 45.5787 14.533 45.4786 14.4169C45.3825 14.3008 45.2304 14.2427 45.0222 14.2427C44.778 14.2427 44.5819 14.3188 44.4337 14.4709C44.2896 14.6231 44.2176 14.8272 44.2176 15.0834V16.4766C44.2176 16.6807 44.1155 16.7828 43.9113 16.7828Z"
        fill="url(#paint0_linear_210_690)" />
    <path
        d="M60.8095 16.7828C60.7095 16.7828 60.6314 16.7548 60.5753 16.6988C60.5233 16.6427 60.4973 16.5647 60.4973 16.4646V13.0298H59.2242C59.1402 13.0298 59.0741 13.0077 59.0261 12.9637C58.978 12.9157 58.954 12.8496 58.954 12.7655C58.954 12.6815 58.978 12.6174 59.0261 12.5734C59.0741 12.5293 59.1402 12.5073 59.2242 12.5073H62.3888C62.4769 12.5073 62.545 12.5293 62.593 12.5734C62.641 12.6174 62.6651 12.6815 62.6651 12.7655C62.6651 12.8496 62.641 12.9157 62.593 12.9637C62.545 13.0077 62.4769 13.0298 62.3888 13.0298H61.1158V16.4646C61.1158 16.5647 61.0898 16.6427 61.0377 16.6988C60.9897 16.7548 60.9136 16.7828 60.8095 16.7828ZM63.6685 16.7948C63.4323 16.7948 63.2342 16.7508 63.074 16.6627C62.9179 16.5747 62.7998 16.4446 62.7198 16.2724C62.6437 16.0963 62.6057 15.8761 62.6057 15.6119V14.0746C62.6057 13.9705 62.6317 13.8945 62.6837 13.8464C62.7358 13.7944 62.8098 13.7684 62.9059 13.7684C63.002 13.7684 63.076 13.7944 63.1281 13.8464C63.1841 13.8945 63.2122 13.9705 63.2122 14.0746V15.6179C63.2122 15.8541 63.2602 16.0282 63.3563 16.1403C63.4524 16.2524 63.6045 16.3084 63.8127 16.3084C64.0408 16.3084 64.225 16.2324 64.3651 16.0803C64.5092 15.9241 64.5813 15.72 64.5813 15.4678V14.0746C64.5813 13.9705 64.6073 13.8945 64.6593 13.8464C64.7114 13.7944 64.7875 13.7684 64.8875 13.7684C64.9836 13.7684 65.0577 13.7944 65.1097 13.8464C65.1618 13.8945 65.1878 13.9705 65.1878 14.0746V16.4766C65.1878 16.6807 65.0897 16.7828 64.8935 16.7828C64.8015 16.7828 64.7294 16.7568 64.6774 16.7048C64.6253 16.6487 64.5993 16.5727 64.5993 16.4766V15.9662L64.6774 16.0983C64.5973 16.3225 64.4692 16.4946 64.293 16.6147C64.1169 16.7348 63.9087 16.7948 63.6685 16.7948ZM67.4176 16.7948C67.0974 16.7948 66.8211 16.7348 66.5889 16.6147C66.3608 16.4906 66.1826 16.3165 66.0545 16.0923C65.9304 15.8641 65.8684 15.5939 65.8684 15.2816C65.8684 14.9774 65.9304 14.7111 66.0545 14.4829C66.1786 14.2548 66.3488 14.0766 66.5649 13.9485C66.7811 13.8204 67.0273 13.7563 67.3035 13.7563C67.5077 13.7563 67.6899 13.7904 67.85 13.8584C68.0101 13.9225 68.1462 14.0186 68.2583 14.1467C68.3744 14.2708 68.4605 14.4229 68.5165 14.603C68.5766 14.7832 68.6066 14.9854 68.6066 15.2095C68.6066 15.2776 68.5866 15.3296 68.5466 15.3657C68.5065 15.3977 68.4465 15.4137 68.3664 15.4137H66.3488V15.0414H68.1983L68.0962 15.1255C68.0962 14.9253 68.0662 14.7552 68.0061 14.6151C67.9501 14.4749 67.864 14.3689 67.7479 14.2968C67.6358 14.2207 67.4957 14.1827 67.3276 14.1827C67.1394 14.1827 66.9793 14.2267 66.8472 14.3148C66.7191 14.4029 66.621 14.525 66.5529 14.6811C66.4849 14.8372 66.4508 15.0194 66.4508 15.2276V15.2636C66.4508 15.6159 66.5329 15.8821 66.697 16.0622C66.8652 16.2384 67.1074 16.3265 67.4236 16.3265C67.5437 16.3265 67.6698 16.3104 67.8019 16.2784C67.9381 16.2464 68.0662 16.1923 68.1863 16.1163C68.2543 16.0763 68.3144 16.0582 68.3664 16.0622C68.4225 16.0662 68.4665 16.0843 68.4985 16.1163C68.5345 16.1483 68.5566 16.1883 68.5646 16.2364C68.5726 16.2844 68.5646 16.3345 68.5405 16.3865C68.5165 16.4345 68.4745 16.4786 68.4144 16.5186C68.2783 16.6107 68.1202 16.6807 67.9401 16.7288C67.7599 16.7728 67.5858 16.7948 67.4176 16.7948Z"
        fill="url(#paint1_linear_210_690)" />
    <path
        d="M83.1421 16.7828C83.0541 16.7828 82.982 16.7608 82.926 16.7168C82.8739 16.6727 82.8299 16.6047 82.7939 16.5126L81.5028 12.8316C81.4668 12.7275 81.4728 12.6414 81.5208 12.5734C81.5729 12.5013 81.6569 12.4653 81.773 12.4653C81.8611 12.4653 81.9292 12.4853 81.9772 12.5253C82.0292 12.5654 82.0693 12.6294 82.0973 12.7175L83.2683 16.1643H83.0461L84.2471 12.7295C84.2831 12.6414 84.3251 12.5754 84.3732 12.5313C84.4212 12.4873 84.4852 12.4653 84.5653 12.4653C84.6454 12.4653 84.7074 12.4873 84.7515 12.5313C84.7995 12.5754 84.8415 12.6434 84.8776 12.7355L86.0545 16.1643H85.8564L87.0393 12.7175C87.0674 12.6334 87.1054 12.5714 87.1534 12.5313C87.2055 12.4873 87.2735 12.4653 87.3576 12.4653C87.4617 12.4653 87.5378 12.5013 87.5858 12.5734C87.6378 12.6414 87.6438 12.7275 87.6038 12.8316L86.3067 16.5186C86.2707 16.6067 86.2267 16.6727 86.1746 16.7168C86.1226 16.7608 86.0525 16.7828 85.9645 16.7828C85.8724 16.7828 85.8003 16.7608 85.7483 16.7168C85.6962 16.6727 85.6542 16.6047 85.6222 16.5126L84.4873 13.2639H84.6194L83.4724 16.5186C83.4404 16.6067 83.3984 16.6727 83.3463 16.7168C83.2983 16.7608 83.2302 16.7828 83.1421 16.7828ZM89.3145 16.7948C88.9942 16.7948 88.718 16.7348 88.4858 16.6147C88.2576 16.4906 88.0794 16.3165 87.9513 16.0923C87.8272 15.8641 87.7652 15.5939 87.7652 15.2816C87.7652 14.9774 87.8272 14.7111 87.9513 14.4829C88.0754 14.2548 88.2456 14.0766 88.4618 13.9485C88.6779 13.8204 88.9241 13.7563 89.2004 13.7563C89.4045 13.7563 89.5867 13.7904 89.7468 13.8584C89.9069 13.9225 90.0431 14.0186 90.1552 14.1467C90.2712 14.2708 90.3573 14.4229 90.4134 14.603C90.4734 14.7832 90.5034 14.9854 90.5034 15.2095C90.5034 15.2776 90.4834 15.3296 90.4434 15.3657C90.4034 15.3977 90.3433 15.4137 90.2632 15.4137H88.2456V15.0414H90.0951L89.993 15.1255C89.993 14.9253 89.963 14.7552 89.9029 14.6151C89.8469 14.4749 89.7608 14.3689 89.6447 14.2968C89.5326 14.2207 89.3925 14.1827 89.2244 14.1827C89.0362 14.1827 88.8761 14.2267 88.744 14.3148C88.6159 14.4029 88.5178 14.525 88.4498 14.6811C88.3817 14.8372 88.3477 15.0194 88.3477 15.2276V15.2636C88.3477 15.6159 88.4297 15.8821 88.5939 16.0622C88.762 16.2384 89.0042 16.3265 89.3205 16.3265C89.4406 16.3265 89.5667 16.3104 89.6988 16.2784C89.8349 16.2464 89.963 16.1923 90.0831 16.1163C90.1511 16.0763 90.2112 16.0582 90.2632 16.0622C90.3193 16.0662 90.3633 16.0843 90.3953 16.1163C90.4314 16.1483 90.4534 16.1883 90.4614 16.2364C90.4694 16.2844 90.4614 16.3345 90.4374 16.3865C90.4134 16.4345 90.3713 16.4786 90.3113 16.5186C90.1752 16.6107 90.017 16.6807 89.8369 16.7288C89.6567 16.7728 89.4826 16.7948 89.3145 16.7948ZM92.2816 16.7948C92.0253 16.7948 91.7992 16.7348 91.603 16.6147C91.4108 16.4906 91.2607 16.3144 91.1526 16.0863C91.0445 15.8541 90.9905 15.5838 90.9905 15.2756C90.9905 14.9593 91.0445 14.6891 91.1526 14.4649C91.2607 14.2407 91.4108 14.0666 91.603 13.9425C91.7992 13.8184 92.0253 13.7563 92.2816 13.7563C92.5378 13.7563 92.7579 13.8204 92.9421 13.9485C93.1303 14.0726 93.2564 14.2407 93.3204 14.4529H93.2544V12.7715C93.2544 12.6715 93.2804 12.5954 93.3324 12.5434C93.3845 12.4913 93.4585 12.4653 93.5546 12.4653C93.6507 12.4653 93.7247 12.4913 93.7768 12.5434C93.8328 12.5954 93.8609 12.6715 93.8609 12.7715V16.4766C93.8609 16.5727 93.8348 16.6487 93.7828 16.7048C93.7307 16.7568 93.6567 16.7828 93.5606 16.7828C93.4645 16.7828 93.3905 16.7568 93.3384 16.7048C93.2864 16.6487 93.2604 16.5727 93.2604 16.4766V15.9481L93.3264 16.0803C93.2624 16.2964 93.1363 16.4706 92.9481 16.6027C92.7639 16.7308 92.5418 16.7948 92.2816 16.7948ZM92.4377 16.3265C92.6018 16.3265 92.7459 16.2864 92.87 16.2064C92.9941 16.1263 93.0902 16.0082 93.1583 15.8521C93.2303 15.6959 93.2664 15.5038 93.2664 15.2756C93.2664 14.9313 93.1903 14.6711 93.0382 14.495C92.886 14.3188 92.6859 14.2307 92.4377 14.2307C92.2695 14.2307 92.1234 14.2708 91.9993 14.3508C91.8752 14.4269 91.7771 14.543 91.7051 14.6991C91.637 14.8553 91.603 15.0474 91.603 15.2756C91.603 15.6159 91.6791 15.8761 91.8312 16.0562C91.9833 16.2364 92.1855 16.3265 92.4377 16.3265Z"
        fill="url(#paint2_linear_210_690)" />
    <path
        d="M106.012 16.7828C105.912 16.7828 105.834 16.7548 105.778 16.6988C105.726 16.6427 105.7 16.5647 105.7 16.4646V13.0298H104.427C104.343 13.0298 104.277 13.0077 104.229 12.9637C104.181 12.9157 104.157 12.8496 104.157 12.7655C104.157 12.6815 104.181 12.6174 104.229 12.5734C104.277 12.5293 104.343 12.5073 104.427 12.5073H107.592C107.68 12.5073 107.748 12.5293 107.796 12.5734C107.844 12.6174 107.868 12.6815 107.868 12.7655C107.868 12.8496 107.844 12.9157 107.796 12.9637C107.748 13.0077 107.68 13.0298 107.592 13.0298H106.319V16.4646C106.319 16.5647 106.293 16.6427 106.24 16.6988C106.192 16.7548 106.116 16.7828 106.012 16.7828ZM108.807 16.7828C108.711 16.7828 108.637 16.7568 108.585 16.7048C108.533 16.6487 108.507 16.5727 108.507 16.4766V12.7715C108.507 12.6715 108.533 12.5954 108.585 12.5434C108.637 12.4913 108.711 12.4653 108.807 12.4653C108.903 12.4653 108.977 12.4913 109.029 12.5434C109.085 12.5954 109.113 12.6715 109.113 12.7715V14.4349H109.029C109.117 14.2107 109.255 14.0426 109.443 13.9305C109.632 13.8144 109.848 13.7563 110.092 13.7563C110.324 13.7563 110.516 13.8004 110.668 13.8885C110.825 13.9725 110.941 14.1026 111.017 14.2788C111.093 14.4509 111.131 14.6691 111.131 14.9333V16.4766C111.131 16.5727 111.105 16.6487 111.053 16.7048C111.001 16.7568 110.927 16.7828 110.831 16.7828C110.73 16.7828 110.654 16.7568 110.602 16.7048C110.55 16.6487 110.524 16.5727 110.524 16.4766V14.9693C110.524 14.7171 110.474 14.533 110.374 14.4169C110.278 14.3008 110.126 14.2427 109.918 14.2427C109.674 14.2427 109.477 14.3188 109.329 14.4709C109.185 14.6231 109.113 14.8272 109.113 15.0834V16.4766C109.113 16.6807 109.011 16.7828 108.807 16.7828ZM113.011 16.7948C112.775 16.7948 112.577 16.7508 112.417 16.6627C112.261 16.5747 112.143 16.4446 112.063 16.2724C111.987 16.0963 111.949 15.8761 111.949 15.6119V14.0746C111.949 13.9705 111.975 13.8945 112.027 13.8464C112.079 13.7944 112.153 13.7684 112.249 13.7684C112.345 13.7684 112.419 13.7944 112.471 13.8464C112.527 13.8945 112.555 13.9705 112.555 14.0746V15.6179C112.555 15.8541 112.603 16.0282 112.699 16.1403C112.795 16.2524 112.947 16.3084 113.156 16.3084C113.384 16.3084 113.568 16.2324 113.708 16.0803C113.852 15.9241 113.924 15.72 113.924 15.4678V14.0746C113.924 13.9705 113.95 13.8945 114.002 13.8464C114.054 13.7944 114.13 13.7684 114.23 13.7684C114.326 13.7684 114.401 13.7944 114.453 13.8464C114.505 13.8945 114.531 13.9705 114.531 14.0746V16.4766C114.531 16.6807 114.433 16.7828 114.236 16.7828C114.144 16.7828 114.072 16.7568 114.02 16.7048C113.968 16.6487 113.942 16.5727 113.942 16.4766V15.9662L114.02 16.0983C113.94 16.3225 113.812 16.4946 113.636 16.6147C113.46 16.7348 113.252 16.7948 113.011 16.7948Z"
        fill="url(#paint3_linear_210_690)" />
    <path
        d="M129.88 16.7828C129.776 16.7828 129.694 16.7548 129.634 16.6988C129.578 16.6427 129.55 16.5607 129.55 16.4526V12.8436C129.55 12.7355 129.578 12.6534 129.634 12.5974C129.694 12.5373 129.778 12.5073 129.886 12.5073H132.024C132.112 12.5073 132.176 12.5293 132.216 12.5734C132.26 12.6134 132.282 12.6735 132.282 12.7535C132.282 12.8376 132.26 12.9016 132.216 12.9457C132.176 12.9897 132.112 13.0117 132.024 13.0117H130.174V14.3628H131.904C131.984 14.3628 132.046 14.3849 132.09 14.4289C132.138 14.4689 132.162 14.529 132.162 14.609C132.162 14.6931 132.138 14.7572 132.09 14.8012C132.046 14.8452 131.984 14.8673 131.904 14.8673H130.174V16.4526C130.174 16.6727 130.076 16.7828 129.88 16.7828ZM133.056 16.7828C132.956 16.7828 132.88 16.7568 132.828 16.7048C132.776 16.6487 132.75 16.5727 132.75 16.4766V14.0746C132.75 13.9745 132.776 13.8985 132.828 13.8464C132.88 13.7944 132.952 13.7684 133.044 13.7684C133.14 13.7684 133.212 13.7944 133.26 13.8464C133.312 13.8985 133.338 13.9745 133.338 14.0746V14.513H133.278C133.342 14.2728 133.46 14.0906 133.633 13.9665C133.805 13.8424 134.025 13.7704 134.293 13.7503C134.365 13.7463 134.421 13.7644 134.461 13.8044C134.505 13.8444 134.529 13.9065 134.533 13.9905C134.541 14.0746 134.523 14.1427 134.479 14.1947C134.435 14.2427 134.367 14.2708 134.275 14.2788L134.161 14.2908C133.901 14.3148 133.703 14.3969 133.567 14.537C133.43 14.6771 133.362 14.8693 133.362 15.1135V16.4766C133.362 16.5727 133.336 16.6487 133.284 16.7048C133.236 16.7568 133.16 16.7828 133.056 16.7828ZM135.29 16.7768C135.194 16.7768 135.12 16.7488 135.068 16.6928C135.016 16.6327 134.99 16.5506 134.99 16.4466V14.1046C134.99 14.0005 135.016 13.9205 135.068 13.8644C135.12 13.8084 135.194 13.7804 135.29 13.7804C135.386 13.7804 135.46 13.8084 135.512 13.8644C135.568 13.9205 135.597 14.0005 135.597 14.1046V16.4466C135.597 16.5506 135.57 16.6327 135.518 16.6928C135.466 16.7488 135.39 16.7768 135.29 16.7768ZM135.29 13.1559C135.17 13.1559 135.076 13.1258 135.008 13.0658C134.944 13.0057 134.912 12.9217 134.912 12.8136C134.912 12.7015 134.944 12.6174 135.008 12.5614C135.076 12.5013 135.17 12.4713 135.29 12.4713C135.41 12.4713 135.502 12.5013 135.566 12.5614C135.635 12.6174 135.669 12.7015 135.669 12.8136C135.669 12.9217 135.635 13.0057 135.566 13.0658C135.502 13.1258 135.41 13.1559 135.29 13.1559Z"
        fill="url(#paint4_linear_210_690)" />
    <path
        d="M154.68 16.7948C154.495 16.7948 154.315 16.7808 154.139 16.7528C153.963 16.7248 153.797 16.6828 153.641 16.6267C153.485 16.5667 153.344 16.4946 153.22 16.4105C153.16 16.3665 153.118 16.3165 153.094 16.2604C153.074 16.2044 153.068 16.1503 153.076 16.0983C153.088 16.0422 153.112 15.9942 153.148 15.9542C153.184 15.9141 153.228 15.8901 153.28 15.8821C153.332 15.8701 153.391 15.8861 153.455 15.9301C153.635 16.0462 153.825 16.1323 154.025 16.1883C154.225 16.2404 154.443 16.2664 154.68 16.2664C155.02 16.2664 155.27 16.2064 155.43 16.0863C155.594 15.9622 155.676 15.802 155.676 15.6059C155.676 15.4457 155.618 15.3196 155.502 15.2276C155.386 15.1315 155.192 15.0554 154.92 14.9994L154.277 14.8673C153.897 14.7872 153.613 14.6551 153.425 14.4709C153.24 14.2868 153.148 14.0386 153.148 13.7263C153.148 13.5382 153.186 13.366 153.262 13.2099C153.342 13.0538 153.453 12.9197 153.593 12.8076C153.733 12.6915 153.901 12.6034 154.097 12.5434C154.293 12.4833 154.507 12.4533 154.74 12.4533C154.988 12.4533 155.22 12.4853 155.436 12.5494C155.656 12.6134 155.853 12.7115 156.025 12.8436C156.077 12.8796 156.111 12.9257 156.127 12.9817C156.147 13.0338 156.151 13.0858 156.139 13.1378C156.131 13.1899 156.109 13.2339 156.073 13.27C156.037 13.306 155.991 13.328 155.935 13.336C155.879 13.34 155.817 13.32 155.748 13.276C155.592 13.1719 155.432 13.0978 155.268 13.0538C155.108 13.0057 154.93 12.9817 154.734 12.9817C154.537 12.9817 154.365 13.0117 154.217 13.0718C154.073 13.1318 153.961 13.2159 153.881 13.324C153.805 13.4321 153.767 13.5602 153.767 13.7083C153.767 13.8764 153.821 14.0106 153.929 14.1106C154.037 14.2107 154.217 14.2868 154.469 14.3388L155.106 14.4709C155.506 14.555 155.805 14.6851 156.001 14.8613C156.197 15.0374 156.295 15.2716 156.295 15.5638C156.295 15.752 156.257 15.9221 156.181 16.0743C156.105 16.2224 155.997 16.3505 155.857 16.4586C155.716 16.5667 155.546 16.6507 155.346 16.7108C155.15 16.7668 154.928 16.7948 154.68 16.7948ZM157.875 16.7948C157.67 16.7948 157.486 16.7548 157.322 16.6747C157.162 16.5947 157.036 16.4866 156.944 16.3505C156.852 16.2144 156.806 16.0602 156.806 15.8881C156.806 15.6719 156.86 15.5018 156.968 15.3777C157.08 15.2496 157.262 15.1595 157.514 15.1075C157.771 15.0514 158.115 15.0234 158.547 15.0234H158.829V15.3957H158.553C158.265 15.3957 158.037 15.4097 157.869 15.4377C157.7 15.4658 157.58 15.5138 157.508 15.5818C157.44 15.6459 157.406 15.736 157.406 15.8521C157.406 16.0042 157.458 16.1283 157.562 16.2244C157.666 16.3165 157.811 16.3625 157.995 16.3625C158.143 16.3625 158.273 16.3285 158.385 16.2604C158.497 16.1883 158.585 16.0923 158.649 15.9722C158.717 15.8521 158.751 15.714 158.751 15.5578V14.8673C158.751 14.6391 158.703 14.4749 158.607 14.3749C158.511 14.2748 158.353 14.2247 158.133 14.2247C158.005 14.2247 157.871 14.2407 157.731 14.2728C157.594 14.3048 157.452 14.3588 157.304 14.4349C157.236 14.4669 157.178 14.4769 157.13 14.4649C157.082 14.4529 157.044 14.4269 157.016 14.3869C156.988 14.3428 156.972 14.2968 156.968 14.2488C156.968 14.1967 156.98 14.1467 157.004 14.0986C157.032 14.0506 157.078 14.0146 157.142 13.9905C157.318 13.9065 157.492 13.8464 157.664 13.8104C157.837 13.7744 157.999 13.7563 158.151 13.7563C158.419 13.7563 158.639 13.7984 158.811 13.8825C158.988 13.9665 159.118 14.0946 159.202 14.2668C159.286 14.4389 159.328 14.6611 159.328 14.9333V16.4766C159.328 16.5727 159.304 16.6487 159.256 16.7048C159.208 16.7568 159.138 16.7828 159.046 16.7828C158.958 16.7828 158.887 16.7568 158.835 16.7048C158.783 16.6487 158.757 16.5727 158.757 16.4766V16.0863H158.811C158.779 16.2344 158.719 16.3625 158.631 16.4706C158.547 16.5747 158.441 16.6547 158.313 16.7108C158.185 16.7668 158.039 16.7948 157.875 16.7948ZM161.412 16.7948C161.172 16.7948 160.97 16.7528 160.806 16.6687C160.642 16.5847 160.519 16.4606 160.439 16.2964C160.359 16.1323 160.319 15.9321 160.319 15.6959V14.2788H159.959C159.879 14.2788 159.817 14.2588 159.773 14.2187C159.729 14.1747 159.707 14.1166 159.707 14.0446C159.707 13.9685 159.729 13.9105 159.773 13.8704C159.817 13.8304 159.879 13.8104 159.959 13.8104H160.319V13.1919C160.319 13.0918 160.345 13.0157 160.397 12.9637C160.453 12.9117 160.529 12.8856 160.626 12.8856C160.722 12.8856 160.796 12.9117 160.848 12.9637C160.9 13.0157 160.926 13.0918 160.926 13.1919V13.8104H161.628C161.708 13.8104 161.77 13.8304 161.815 13.8704C161.859 13.9105 161.881 13.9685 161.881 14.0446C161.881 14.1166 161.859 14.1747 161.815 14.2187C161.77 14.2588 161.708 14.2788 161.628 14.2788H160.926V15.6479C160.926 15.8601 160.97 16.0202 161.058 16.1283C161.15 16.2364 161.298 16.2904 161.502 16.2904C161.574 16.2904 161.636 16.2844 161.688 16.2724C161.744 16.2564 161.791 16.2464 161.827 16.2424C161.871 16.2424 161.907 16.2584 161.935 16.2904C161.963 16.3185 161.977 16.3745 161.977 16.4586C161.977 16.5186 161.965 16.5747 161.941 16.6267C161.921 16.6787 161.883 16.7128 161.827 16.7288C161.778 16.7448 161.712 16.7588 161.628 16.7708C161.548 16.7868 161.476 16.7948 161.412 16.7948Z"
        fill="url(#paint5_linear_210_690)" />
    <path
        d="M13.7488 16.7948C13.5647 16.7948 13.3845 16.7808 13.2084 16.7528C13.0322 16.7248 12.8661 16.6828 12.71 16.6267C12.5538 16.5667 12.4137 16.4946 12.2896 16.4105C12.2296 16.3665 12.1875 16.3165 12.1635 16.2604C12.1435 16.2044 12.1375 16.1503 12.1455 16.0983C12.1575 16.0422 12.1815 15.9942 12.2176 15.9542C12.2536 15.9141 12.2976 15.8901 12.3497 15.8821C12.4017 15.8701 12.4598 15.8861 12.5238 15.9301C12.704 16.0462 12.8941 16.1323 13.0943 16.1883C13.2944 16.2404 13.5126 16.2664 13.7488 16.2664C14.0891 16.2664 14.3393 16.2064 14.4994 16.0863C14.6636 15.9622 14.7456 15.802 14.7456 15.6059C14.7456 15.4457 14.6876 15.3196 14.5715 15.2276C14.4554 15.1315 14.2612 15.0554 13.989 14.9994L13.3465 14.8673C12.9662 14.7872 12.6819 14.6551 12.4938 14.4709C12.3096 14.2868 12.2176 14.0386 12.2176 13.7263C12.2176 13.5382 12.2556 13.366 12.3317 13.2099C12.4117 13.0538 12.5218 12.9197 12.6619 12.8076C12.802 12.6915 12.9702 12.6034 13.1663 12.5434C13.3625 12.4833 13.5767 12.4533 13.8089 12.4533C14.0571 12.4533 14.2893 12.4853 14.5054 12.5494C14.7256 12.6134 14.9218 12.7115 15.0939 12.8436C15.146 12.8796 15.18 12.9257 15.196 12.9817C15.216 13.0338 15.22 13.0858 15.208 13.1378C15.2 13.1899 15.178 13.2339 15.142 13.27C15.1059 13.306 15.0599 13.328 15.0038 13.336C14.9478 13.34 14.8857 13.32 14.8177 13.276C14.6616 13.1719 14.5014 13.0978 14.3373 13.0538C14.1772 13.0057 13.999 12.9817 13.8029 12.9817C13.6067 12.9817 13.4346 13.0117 13.2864 13.0718C13.1423 13.1318 13.0302 13.2159 12.9502 13.324C12.8741 13.4321 12.8361 13.5602 12.8361 13.7083C12.8361 13.8764 12.8901 14.0106 12.9982 14.1106C13.1063 14.2107 13.2864 14.2868 13.5386 14.3388L14.1752 14.4709C14.5755 14.555 14.8737 14.6851 15.0699 14.8613C15.2661 15.0374 15.3641 15.2716 15.3641 15.5638C15.3641 15.752 15.3261 15.9221 15.25 16.0743C15.174 16.2224 15.0659 16.3505 14.9258 16.4586C14.7857 16.5667 14.6155 16.6507 14.4154 16.7108C14.2192 16.7668 13.997 16.7948 13.7488 16.7948ZM17.0519 16.7948C16.8158 16.7948 16.6176 16.7508 16.4575 16.6627C16.3013 16.5747 16.1832 16.4446 16.1032 16.2724C16.0271 16.0963 15.9891 15.8761 15.9891 15.6119V14.0746C15.9891 13.9705 16.0151 13.8945 16.0671 13.8464C16.1192 13.7944 16.1932 13.7684 16.2893 13.7684C16.3854 13.7684 16.4595 13.7944 16.5115 13.8464C16.5676 13.8945 16.5956 13.9705 16.5956 14.0746V15.6179C16.5956 15.8541 16.6436 16.0282 16.7397 16.1403C16.8358 16.2524 16.9879 16.3084 17.1961 16.3084C17.4243 16.3084 17.6084 16.2324 17.7485 16.0803C17.8926 15.9241 17.9647 15.72 17.9647 15.4678V14.0746C17.9647 13.9705 17.9907 13.8945 18.0428 13.8464C18.0948 13.7944 18.1709 13.7684 18.2709 13.7684C18.367 13.7684 18.4411 13.7944 18.4931 13.8464C18.5452 13.8945 18.5712 13.9705 18.5712 14.0746V16.4766C18.5712 16.6807 18.4731 16.7828 18.277 16.7828C18.1849 16.7828 18.1128 16.7568 18.0608 16.7048C18.0087 16.6487 17.9827 16.5727 17.9827 16.4766V15.9662L18.0608 16.0983C17.9807 16.3225 17.8526 16.4946 17.6765 16.6147C17.5003 16.7348 17.2921 16.7948 17.0519 16.7948ZM19.7262 16.7828C19.6301 16.7828 19.556 16.7568 19.504 16.7048C19.4519 16.6487 19.4259 16.5727 19.4259 16.4766V14.0746C19.4259 13.9745 19.4519 13.8985 19.504 13.8464C19.556 13.7944 19.6281 13.7684 19.7202 13.7684C19.8162 13.7684 19.8883 13.7944 19.9363 13.8464C19.9884 13.8985 20.0144 13.9745 20.0144 14.0746V14.543L19.9483 14.4349C20.0364 14.2107 20.1745 14.0426 20.3627 13.9305C20.5508 13.8144 20.767 13.7563 21.0112 13.7563C21.2434 13.7563 21.4356 13.8004 21.5877 13.8885C21.7438 13.9725 21.8599 14.1026 21.936 14.2788C22.012 14.4509 22.0501 14.6691 22.0501 14.9333V16.4766C22.0501 16.5727 22.024 16.6487 21.972 16.7048C21.92 16.7568 21.8459 16.7828 21.7498 16.7828C21.6497 16.7828 21.5737 16.7568 21.5216 16.7048C21.4696 16.6487 21.4436 16.5727 21.4436 16.4766V14.9693C21.4436 14.7171 21.3935 14.533 21.2934 14.4169C21.1974 14.3008 21.0452 14.2427 20.8371 14.2427C20.5929 14.2427 20.3967 14.3188 20.2486 14.4709C20.1045 14.6231 20.0324 14.8272 20.0324 15.0834V16.4766C20.0324 16.6807 19.9303 16.7828 19.7262 16.7828Z"
        fill="url(#paint6_linear_210_690)" />
    <rect x="54.1133" y="24.735" width="19.4085" height="20.3908" rx="4.85213"
        fill="url(#paint7_linear_210_690)" fill-opacity="0.16" />
    <rect x="77.4248" y="24.735" width="19.4085" height="20.3908" rx="4.85213"
        fill="url(#paint8_linear_210_690)" fill-opacity="0.75" />
    <rect x="100.736" y="24.735" width="19.4085" height="20.3908" rx="4.85213"
        fill="url(#paint9_linear_210_690)" />
    <rect x="124.048" y="24.735" width="19.4085" height="20.3908" rx="4.85213"
        fill="url(#paint10_linear_210_690)" fill-opacity="0.5" />
    <rect x="147.356" y="24.735" width="19.4085" height="20.3908" rx="4.85213"
        fill="url(#paint11_linear_210_690)" fill-opacity="0.16" />
    <rect x="7.49121" y="49.2257" width="19.4085" height="20.3908" rx="4.85213"
        fill="url(#paint12_linear_210_690)" fill-opacity="0.16" />
    <rect x="7.49121" y="73.7167" width="19.4085" height="20.3908" rx="4.85213"
        fill="url(#paint13_linear_210_690)" />
    <rect x="7.49121" y="98.2075" width="19.4085" height="20.3908" rx="4.85213"
        fill="url(#paint14_linear_210_690)" fill-opacity="0.16" />
    <rect x="7.49121" y="122.698" width="19.4085" height="20.3908" rx="4.85213"
        fill="url(#paint15_linear_210_690)" fill-opacity="0.16" />
    <rect x="30.8027" y="49.2257" width="19.4085" height="20.3908" rx="4.85213"
        fill="url(#paint16_linear_210_690)" />
    <rect x="30.8027" y="73.7167" width="19.4085" height="20.3908" rx="4.85213"
        fill="url(#paint17_linear_210_690)" fill-opacity="0.75" />
    <rect x="30.8027" y="98.2075" width="19.4085" height="20.3908" rx="4.85213"
        fill="url(#paint18_linear_210_690)" fill-opacity="0.16" />
    <rect x="30.8027" y="122.698" width="19.4085" height="20.3908" rx="4.85213"
        fill="url(#paint19_linear_210_690)" fill-opacity="0.5" />
    <rect x="54.1133" y="49.2257" width="19.4085" height="20.3908" rx="4.85213"
        fill="url(#paint20_linear_210_690)" fill-opacity="0.16" />
    <rect x="54.1133" y="73.7167" width="19.4085" height="20.3908" rx="4.85213"
        fill="url(#paint21_linear_210_690)" />
    <rect x="54.1133" y="98.2075" width="19.4085" height="20.3908" rx="4.85213"
        fill="url(#paint22_linear_210_690)" />
    <rect x="54.1133" y="122.698" width="19.4085" height="20.3908" rx="4.85213"
        fill="url(#paint23_linear_210_690)" />
    <rect x="77.4248" y="49.2257" width="19.4085" height="20.3908" rx="4.85213"
        fill="url(#paint24_linear_210_690)" fill-opacity="0.5" />
    <rect x="77.4248" y="73.7167" width="19.4085" height="20.3908" rx="4.85213"
        fill="url(#paint25_linear_210_690)" fill-opacity="0.16" />
    <rect x="77.4248" y="98.2075" width="19.4085" height="20.3908" rx="4.85213"
        fill="url(#paint26_linear_210_690)" />
    <rect x="77.4248" y="122.698" width="19.4085" height="20.3908" rx="4.85213"
        fill="url(#paint27_linear_210_690)" fill-opacity="0.16" />
    <rect x="117.138" y="151.418" width="7.64833" height="8.03542" rx="1.91208"
        fill="url(#paint28_linear_210_690)" fill-opacity="0.16" />
    <rect x="125.482" y="151.418" width="7.64833" height="8.03542" rx="1.91208"
        fill="url(#paint29_linear_210_690)" fill-opacity="0.5" />
    <rect x="133.825" y="151.418" width="7.64833" height="8.03542" rx="1.91208"
        fill="url(#paint30_linear_210_690)" fill-opacity="0.75" />
    <rect x="142.168" y="151.418" width="7.64833" height="8.03542" rx="1.91208"
        fill="url(#paint31_linear_210_690)" />
    <rect x="100.736" y="49.2257" width="19.4085" height="20.3908" rx="4.85213"
        fill="url(#paint32_linear_210_690)" fill-opacity="0.16" />
    <rect x="100.736" y="73.7167" width="19.4085" height="20.3908" rx="4.85213"
        fill="url(#paint33_linear_210_690)" />
    <rect x="100.736" y="98.2075" width="19.4085" height="20.3908" rx="4.85213"
        fill="url(#paint34_linear_210_690)" fill-opacity="0.16" />
    <rect x="124.048" y="49.2257" width="19.4085" height="20.3908" rx="4.85213"
        fill="url(#paint35_linear_210_690)" fill-opacity="0.16" />
    <rect x="124.048" y="73.7167" width="19.4085" height="20.3908" rx="4.85213"
        fill="url(#paint36_linear_210_690)" fill-opacity="0.5" />
    <rect x="124.048" y="98.2075" width="19.4085" height="20.3908" rx="4.85213"
        fill="url(#paint37_linear_210_690)" fill-opacity="0.75" />
    <rect x="147.356" y="49.2257" width="19.4085" height="20.3908" rx="4.85213"
        fill="url(#paint38_linear_210_690)" fill-opacity="0.75" />
    <rect x="147.356" y="73.7167" width="19.4085" height="20.3908" rx="4.85213"
        fill="url(#paint39_linear_210_690)" fill-opacity="0.16" />
    <rect x="147.356" y="98.2075" width="19.4085" height="20.3908" rx="4.85213"
        fill="url(#paint40_linear_210_690)" fill-opacity="0.16" />
    <defs>
        <linearGradient id="paint0_linear_210_690" x1="40.5182" y1="10.6947" x2="40.5182"
            y2="20.9136" gradientUnits="userSpaceOnUse">
            <stop stop-color="#EB7C49" />
            <stop offset="1" stop-color="#F04F52" />
        </linearGradient>
        <linearGradient id="paint1_linear_210_690" x1="63.8201" y1="10.6947" x2="63.8201"
            y2="20.9136" gradientUnits="userSpaceOnUse">
            <stop stop-color="#EB7C49" />
            <stop offset="1" stop-color="#F04F52" />
        </linearGradient>
        <linearGradient id="paint2_linear_210_690" x1="87.635" y1="10.6947" x2="87.635" y2="20.9136"
            gradientUnits="userSpaceOnUse">
            <stop stop-color="#EB7C49" />
            <stop offset="1" stop-color="#F04F52" />
        </linearGradient>
        <linearGradient id="paint3_linear_210_690" x1="109.472" y1="10.6947" x2="109.472"
            y2="20.9136" gradientUnits="userSpaceOnUse">
            <stop stop-color="#EB7C49" />
            <stop offset="1" stop-color="#F04F52" />
        </linearGradient>
        <linearGradient id="paint4_linear_210_690" x1="132.48" y1="10.6947" x2="132.48" y2="20.9136"
            gradientUnits="userSpaceOnUse">
            <stop stop-color="#EB7C49" />
            <stop offset="1" stop-color="#F04F52" />
        </linearGradient>
        <linearGradient id="paint5_linear_210_690" x1="157.266" y1="10.6947" x2="157.266"
            y2="20.9136" gradientUnits="userSpaceOnUse">
            <stop stop-color="#EB7C49" />
            <stop offset="1" stop-color="#F04F52" />
        </linearGradient>
        <linearGradient id="paint6_linear_210_690" x1="17.057" y1="10.6947" x2="17.057" y2="20.9136"
            gradientUnits="userSpaceOnUse">
            <stop stop-color="#EB7C49" />
            <stop offset="1" stop-color="#F04F52" />
        </linearGradient>
        <linearGradient id="paint7_linear_210_690" x1="63.6494" y1="24.623" x2="63.6494"
            y2="49.4149" gradientUnits="userSpaceOnUse">
            <stop stop-color="#EB7C49" />
            <stop offset="1" stop-color="#F04F52" />
        </linearGradient>
        <linearGradient id="paint8_linear_210_690" x1="86.9609" y1="24.623" x2="86.9609"
            y2="49.4149" gradientUnits="userSpaceOnUse">
            <stop stop-color="#EB7C49" />
            <stop offset="1" stop-color="#F04F52" />
        </linearGradient>
        <linearGradient id="paint9_linear_210_690" x1="110.272" y1="24.623" x2="110.272"
            y2="49.4149" gradientUnits="userSpaceOnUse">
            <stop stop-color="#EB7C49" />
            <stop offset="1" stop-color="#F04F52" />
        </linearGradient>
        <linearGradient id="paint10_linear_210_690" x1="133.584" y1="24.623" x2="133.584"
            y2="49.4149" gradientUnits="userSpaceOnUse">
            <stop stop-color="#EB7C49" />
            <stop offset="1" stop-color="#F04F52" />
        </linearGradient>
        <linearGradient id="paint11_linear_210_690" x1="156.893" y1="24.623" x2="156.893"
            y2="49.4149" gradientUnits="userSpaceOnUse">
            <stop stop-color="#EB7C49" />
            <stop offset="1" stop-color="#F04F52" />
        </linearGradient>
        <linearGradient id="paint12_linear_210_690" x1="17.0273" y1="49.1137" x2="17.0273"
            y2="73.9056" gradientUnits="userSpaceOnUse">
            <stop stop-color="#EB7C49" />
            <stop offset="1" stop-color="#F04F52" />
        </linearGradient>
        <linearGradient id="paint13_linear_210_690" x1="17.0273" y1="73.6047" x2="17.0273"
            y2="98.3966" gradientUnits="userSpaceOnUse">
            <stop stop-color="#EB7C49" />
            <stop offset="1" stop-color="#F04F52" />
        </linearGradient>
        <linearGradient id="paint14_linear_210_690" x1="17.0273" y1="98.0955" x2="17.0273"
            y2="122.887" gradientUnits="userSpaceOnUse">
            <stop stop-color="#EB7C49" />
            <stop offset="1" stop-color="#F04F52" />
        </linearGradient>
        <linearGradient id="paint15_linear_210_690" x1="17.0273" y1="122.587" x2="17.0273"
            y2="147.378" gradientUnits="userSpaceOnUse">
            <stop stop-color="#EB7C49" />
            <stop offset="1" stop-color="#F04F52" />
        </linearGradient>
        <linearGradient id="paint16_linear_210_690" x1="40.3388" y1="49.1137" x2="40.3388"
            y2="73.9056" gradientUnits="userSpaceOnUse">
            <stop stop-color="#EB7C49" />
            <stop offset="1" stop-color="#F04F52" />
        </linearGradient>
        <linearGradient id="paint17_linear_210_690" x1="40.3388" y1="73.6047" x2="40.3388"
            y2="98.3966" gradientUnits="userSpaceOnUse">
            <stop stop-color="#EB7C49" />
            <stop offset="1" stop-color="#F04F52" />
        </linearGradient>
        <linearGradient id="paint18_linear_210_690" x1="40.3388" y1="98.0955" x2="40.3388"
            y2="122.887" gradientUnits="userSpaceOnUse">
            <stop stop-color="#EB7C49" />
            <stop offset="1" stop-color="#F04F52" />
        </linearGradient>
        <linearGradient id="paint19_linear_210_690" x1="40.3388" y1="122.587" x2="40.3388"
            y2="147.378" gradientUnits="userSpaceOnUse">
            <stop stop-color="#EB7C49" />
            <stop offset="1" stop-color="#F04F52" />
        </linearGradient>
        <linearGradient id="paint20_linear_210_690" x1="63.6494" y1="49.1137" x2="63.6494"
            y2="73.9056" gradientUnits="userSpaceOnUse">
            <stop stop-color="#EB7C49" />
            <stop offset="1" stop-color="#F04F52" />
        </linearGradient>
        <linearGradient id="paint21_linear_210_690" x1="63.6494" y1="73.6047" x2="63.6494"
            y2="98.3966" gradientUnits="userSpaceOnUse">
            <stop stop-color="#EB7C49" />
            <stop offset="1" stop-color="#F04F52" />
        </linearGradient>
        <linearGradient id="paint22_linear_210_690" x1="63.6494" y1="98.0955" x2="63.6494"
            y2="122.887" gradientUnits="userSpaceOnUse">
            <stop stop-color="#EB7C49" />
            <stop offset="1" stop-color="#F04F52" />
        </linearGradient>
        <linearGradient id="paint23_linear_210_690" x1="63.6494" y1="122.587" x2="63.6494"
            y2="147.378" gradientUnits="userSpaceOnUse">
            <stop stop-color="#EB7C49" />
            <stop offset="1" stop-color="#F04F52" />
        </linearGradient>
        <linearGradient id="paint24_linear_210_690" x1="86.9609" y1="49.1137" x2="86.9609"
            y2="73.9056" gradientUnits="userSpaceOnUse">
            <stop stop-color="#EB7C49" />
            <stop offset="1" stop-color="#F04F52" />
        </linearGradient>
        <linearGradient id="paint25_linear_210_690" x1="86.9609" y1="73.6047" x2="86.9609"
            y2="98.3966" gradientUnits="userSpaceOnUse">
            <stop stop-color="#EB7C49" />
            <stop offset="1" stop-color="#F04F52" />
        </linearGradient>
        <linearGradient id="paint26_linear_210_690" x1="86.9609" y1="98.0955" x2="86.9609"
            y2="122.887" gradientUnits="userSpaceOnUse">
            <stop stop-color="#EB7C49" />
            <stop offset="1" stop-color="#F04F52" />
        </linearGradient>
        <linearGradient id="paint27_linear_210_690" x1="86.9609" y1="122.587" x2="86.9609"
            y2="147.378" gradientUnits="userSpaceOnUse">
            <stop stop-color="#EB7C49" />
            <stop offset="1" stop-color="#F04F52" />
        </linearGradient>
        <linearGradient id="paint28_linear_210_690" x1="120.896" y1="151.374" x2="120.896"
            y2="161.143" gradientUnits="userSpaceOnUse">
            <stop stop-color="#EB7C49" />
            <stop offset="1" stop-color="#F04F52" />
        </linearGradient>
        <linearGradient id="paint29_linear_210_690" x1="129.24" y1="151.374" x2="129.24"
            y2="161.143" gradientUnits="userSpaceOnUse">
            <stop stop-color="#EB7C49" />
            <stop offset="1" stop-color="#F04F52" />
        </linearGradient>
        <linearGradient id="paint30_linear_210_690" x1="137.583" y1="151.374" x2="137.583"
            y2="161.143" gradientUnits="userSpaceOnUse">
            <stop stop-color="#EB7C49" />
            <stop offset="1" stop-color="#F04F52" />
        </linearGradient>
        <linearGradient id="paint31_linear_210_690" x1="145.926" y1="151.374" x2="145.926"
            y2="161.143" gradientUnits="userSpaceOnUse">
            <stop stop-color="#EB7C49" />
            <stop offset="1" stop-color="#F04F52" />
        </linearGradient>
        <linearGradient id="paint32_linear_210_690" x1="110.272" y1="49.1137" x2="110.272"
            y2="73.9056" gradientUnits="userSpaceOnUse">
            <stop stop-color="#EB7C49" />
            <stop offset="1" stop-color="#F04F52" />
        </linearGradient>
        <linearGradient id="paint33_linear_210_690" x1="110.272" y1="73.6047" x2="110.272"
            y2="98.3966" gradientUnits="userSpaceOnUse">
            <stop stop-color="#EB7C49" />
            <stop offset="1" stop-color="#F04F52" />
        </linearGradient>
        <linearGradient id="paint34_linear_210_690" x1="110.272" y1="98.0955" x2="110.272"
            y2="122.887" gradientUnits="userSpaceOnUse">
            <stop stop-color="#EB7C49" />
            <stop offset="1" stop-color="#F04F52" />
        </linearGradient>
        <linearGradient id="paint35_linear_210_690" x1="133.584" y1="49.1137" x2="133.584"
            y2="73.9056" gradientUnits="userSpaceOnUse">
            <stop stop-color="#EB7C49" />
            <stop offset="1" stop-color="#F04F52" />
        </linearGradient>
        <linearGradient id="paint36_linear_210_690" x1="133.584" y1="73.6047" x2="133.584"
            y2="98.3966" gradientUnits="userSpaceOnUse">
            <stop stop-color="#EB7C49" />
            <stop offset="1" stop-color="#F04F52" />
        </linearGradient>
        <linearGradient id="paint37_linear_210_690" x1="133.584" y1="98.0955" x2="133.584"
            y2="122.887" gradientUnits="userSpaceOnUse">
            <stop stop-color="#EB7C49" />
            <stop offset="1" stop-color="#F04F52" />
        </linearGradient>
        <linearGradient id="paint38_linear_210_690" x1="156.893" y1="49.1137" x2="156.893"
            y2="73.9056" gradientUnits="userSpaceOnUse">
            <stop stop-color="#EB7C49" />
            <stop offset="1" stop-color="#F04F52" />
        </linearGradient>
        <linearGradient id="paint39_linear_210_690" x1="156.893" y1="73.6047" x2="156.893"
            y2="98.3966" gradientUnits="userSpaceOnUse">
            <stop stop-color="#EB7C49" />
            <stop offset="1" stop-color="#F04F52" />
        </linearGradient>
        <linearGradient id="paint40_linear_210_690" x1="156.893" y1="98.0955" x2="156.893"
            y2="122.887" gradientUnits="userSpaceOnUse">
            <stop stop-color="#EB7C49" />
            <stop offset="1" stop-color="#F04F52" />
        </linearGradient>
    </defs>
</svg>
    