<svg width="6" height="6" viewBox="0 0 6 6" fill="none" xmlns="http://www.w3.org/2000/svg">
    <path
        d="M2.75378 1.03175C2.83866 1.03175 2.92007 1.06547 2.98009 1.12549C3.04011 1.18552 3.07383 1.26692 3.07383 1.35181C3.07383 1.43669 3.04011 1.51809 2.98009 1.57812C2.92007 1.63814 2.83866 1.67186 2.75378 1.67186H0.833465V5.19244H4.35404V3.27212C4.35404 3.18724 4.38776 3.10583 4.44779 3.04581C4.50781 2.98579 4.58921 2.95207 4.6741 2.95207C4.75898 2.95207 4.84039 2.98579 4.90041 3.04581C4.96043 3.10583 4.99415 3.18724 4.99415 3.27212V5.19244C4.99415 5.3622 4.92671 5.52502 4.80667 5.64506C4.68662 5.7651 4.52381 5.83254 4.35404 5.83254H0.833465C0.663698 5.83254 0.500885 5.7651 0.380842 5.64506C0.260799 5.52502 0.193359 5.3622 0.193359 5.19244V1.67186C0.193359 1.50209 0.260799 1.33928 0.380842 1.21923C0.500885 1.09919 0.663698 1.03175 0.833465 1.03175H2.75378ZM5.63426 0.0715942C5.71914 0.0715942 5.80055 0.105314 5.86057 0.165335C5.92059 0.225357 5.95431 0.306764 5.95431 0.391647V1.99191C5.95431 2.07679 5.92059 2.1582 5.86057 2.21822C5.80055 2.27824 5.71914 2.31196 5.63426 2.31196C5.54937 2.31196 5.46797 2.27824 5.40794 2.21822C5.34792 2.1582 5.3142 2.07679 5.3142 1.99191V1.16425L2.66001 3.81845C2.59964 3.87675 2.5188 3.90901 2.43488 3.90828C2.35096 3.90755 2.27069 3.87389 2.21135 3.81455C2.15201 3.75521 2.11835 3.67494 2.11762 3.59102C2.11689 3.50711 2.14915 3.42626 2.20745 3.3659L4.86165 0.7117H4.03399C3.94911 0.7117 3.8677 0.67798 3.80768 0.617958C3.74766 0.557937 3.71394 0.47653 3.71394 0.391647C3.71394 0.306764 3.74766 0.225357 3.80768 0.165335C3.8677 0.105314 3.94911 0.0715942 4.03399 0.0715942H5.63426Z"
        fill="url(#paint0_linear_210_2178)" />
    <defs>
        <linearGradient id="paint0_linear_210_2178" x1="3.02391" y1="0.0399707" x2="3.02391"
            y2="7.04435" gradientUnits="userSpaceOnUse">
            <stop stop-color="#EB7C49" />
            <stop offset="1" stop-color="#F04F52" />
        </linearGradient>
    </defs>
</svg>
    