<svg width="8" height="8" viewBox="0 0 8 8" fill="none" xmlns="http://www.w3.org/2000/svg">
    <path
        d="M3.85478 7.34543C2.05063 7.34543 0.583008 5.87781 0.583008 4.07366C0.583008 2.26951 2.05063 0.80188 3.85478 0.80188C5.65894 0.80188 7.12656 2.26951 7.12656 4.07366C7.12656 5.87781 5.65894 7.34543 3.85478 7.34543ZM3.85478 1.26928C2.3077 1.26928 1.0504 2.52657 1.0504 4.07366C1.0504 5.62074 2.3077 6.87804 3.85478 6.87804C5.40187 6.87804 6.65916 5.62074 6.65916 4.07366C6.65916 2.52657 5.40187 1.26928 3.85478 1.26928Z"
        fill="#B7B7B7" />
    <path
        d="M3.85423 2.43658C3.33542 2.43658 2.91943 2.85257 2.91943 3.37138H3.38683C3.38683 3.11431 3.59716 2.90398 3.85423 2.90398C4.1113 2.90398 4.32162 3.11431 4.32162 3.37138C4.32162 3.83877 3.62053 3.78269 3.62053 4.53987H4.08793C4.08793 4.01638 4.78902 3.95562 4.78902 3.37138C4.78902 2.85257 4.37304 2.43658 3.85423 2.43658Z"
        fill="#B7B7B7" />
    <path
        d="M3.8518 5.76484C4.01184 5.76484 4.14158 5.6351 4.14158 5.47506C4.14158 5.31501 4.01184 5.18527 3.8518 5.18527C3.69175 5.18527 3.56201 5.31501 3.56201 5.47506C3.56201 5.6351 3.69175 5.76484 3.8518 5.76484Z"
        fill="#B7B7B7" />
    <path
        d="M3.15313 3.60625C3.2822 3.60625 3.38683 3.50162 3.38683 3.37255C3.38683 3.24349 3.2822 3.13885 3.15313 3.13885C3.02406 3.13885 2.91943 3.24349 2.91943 3.37255C2.91943 3.50162 3.02406 3.60625 3.15313 3.60625Z"
        fill="#B7B7B7" />
    <path
        d="M3.85626 4.77446C3.98532 4.77446 4.08996 4.66983 4.08996 4.54077C4.08996 4.4117 3.98532 4.30707 3.85626 4.30707C3.72719 4.30707 3.62256 4.4117 3.62256 4.54077C3.62256 4.66983 3.72719 4.77446 3.85626 4.77446Z"
        fill="#B7B7B7" />
</svg>
    