<svg width="13" height="13" viewBox="0 0 13 13" fill="none" xmlns="http://www.w3.org/2000/svg">
    <circle cx="6.50466" cy="6.5862" r="6.14138" fill="url(#paint0_linear_210_2043)" />
    <path
        d="M6.50513 7.26851C5.9622 7.26851 5.44151 7.05283 5.0576 6.66892C4.67369 6.28501 4.45801 5.76431 4.45801 5.22138C4.45801 4.67845 4.67369 4.15776 5.0576 3.77384C5.44151 3.38993 5.9622 3.17426 6.50513 3.17426C7.04807 3.17426 7.56876 3.38993 7.95267 3.77384C8.33658 4.15776 8.55226 4.67845 8.55226 5.22138C8.55226 5.76431 8.33658 6.28501 7.95267 6.66892C7.56876 7.05283 7.04807 7.26851 6.50513 7.26851ZM6.50513 6.24495C6.7766 6.24495 7.03695 6.13711 7.2289 5.94515C7.42086 5.7532 7.5287 5.49285 7.5287 5.22138C7.5287 4.94992 7.42086 4.68957 7.2289 4.49761C7.03695 4.30566 6.7766 4.19782 6.50513 4.19782C6.23367 4.19782 5.97332 4.30566 5.78137 4.49761C5.58941 4.68957 5.48157 4.94992 5.48157 5.22138C5.48157 5.49285 5.58941 5.7532 5.78137 5.94515C5.97332 6.13711 6.23367 6.24495 6.50513 6.24495ZM7.86989 7.18321V9.99801L6.50513 8.63326L5.14038 9.99801V7.18321C5.5403 7.46346 6.0168 7.6138 6.50513 7.6138C6.99347 7.6138 7.46997 7.46346 7.86989 7.18321Z"
        fill="white" />
    <defs>
        <linearGradient id="paint0_linear_210_2043" x1="6.39823" y1="0.377401" x2="6.39823"
            y2="15.3112" gradientUnits="userSpaceOnUse">
            <stop stop-color="#EB7C49" />
            <stop offset="1" stop-color="#F04F52" />
        </linearGradient>
    </defs>
</svg>
    