<svg width="13" height="12" viewBox="0 0 13 12" fill="none" xmlns="http://www.w3.org/2000/svg"><path d="M12.108 1.938 6.368.025a.48.48 0 0 0-.302 0L.327 1.938A.48.48 0 0 0 0 2.39v4.783a.478.478 0 0 0 .956 0v-4.12l2.009.67a3.826 3.826 0 0 0 1.234 5.264c-1.076.422-2.006 1.185-2.687 2.229a.479.479 0 1 0 .802.522c.9-1.382 2.323-2.174 3.903-2.174s3.003.792 3.904 2.174a.479.479 0 0 0 .801-.522c-.68-1.044-1.614-1.807-2.687-2.23a3.826 3.826 0 0 0 1.235-5.26l2.637-.879a.478.478 0 0 0 0-.907zM9.087 5.739a2.87 2.87 0 1 1-5.18-1.7l2.159.717a.48.48 0 0 0 .302 0l2.16-.718c.363.493.559 1.089.559 1.701" fill="#F04F52"/></svg>