<svg width="15" height="15" viewBox="0 0 15 15" fill="none" xmlns="http://www.w3.org/2000/svg"><path d="M7.5 0a7.5 7.5 0 1 1 0 15 7.5 7.5 0 0 1 0-15m0 1.5a6 6 0 1 0 0 12 6 6 0 0 0 0-12m0 1.5a.75.75 0 0 1 .745.662l.005.088v3.44l2.03 2.03a.75.75 0 0 1-.99 1.122l-.07-.062-2.25-2.25a.75.75 0 0 1-.213-.432L6.75 7.5V3.75A.75.75 0 0 1 7.5 3" fill="url(#a)"/><defs><linearGradient id="a" x1="7.37" y1="-.082" x2="7.37" y2="18.155" gradientUnits="userSpaceOnUse"><stop stop-color="#EB7C49"/><stop offset="1" stop-color="#F04F52"/></linearGradient></defs></svg>