<svg width="81" height="69" viewBox="0 0 81 69" fill="none" xmlns="http://www.w3.org/2000/svg"><g clip-path="url(#a)"><path d="M23.688 68.28c1.294-1.093 2.08-2.82 1.874-4.502s-1.483-3.227-3.139-3.584-3.543.631-4.046 2.249c-.277-3.119-.596-6.368-2.254-9.024-1.502-2.405-4.102-4.126-6.92-4.434-2.819-.307-5.786.855-7.544 3.08s-2.188 5.458-.957 8.012c.907 1.881 2.578 3.281 4.328 4.42a27.93 27.93 0 0 0 19.105 4.18" fill="#F2F2F2"/><path d="M4.446 49.904a45.7 45.7 0 0 1 6.37 6.325 45.8 45.8 0 0 1 7.173 11.988c.13.316-.385.454-.512.141a45.4 45.4 0 0 0-4.145-7.843A45.5 45.5 0 0 0 4.07 50.28c-.265-.216.113-.59.376-.376" fill="#fff"/><path d="M24.582 68.28c-1.294-1.093-2.08-2.82-1.874-4.502s1.483-3.227 3.139-3.584 3.543.631 4.046 2.249c.277-3.119.596-6.368 2.254-9.024 1.502-2.405 4.102-4.126 6.92-4.434 2.819-.307 5.786.855 7.544 3.08s2.188 5.458.957 8.012c-.907 1.881-2.578 3.281-4.328 4.42a27.93 27.93 0 0 1-19.105 4.18" fill="#F2F2F2"/><path d="M43.824 49.904a45.7 45.7 0 0 0-6.37 6.325 45.8 45.8 0 0 0-7.173 11.988c-.13.316.385.454.513.141A45.6 45.6 0 0 1 44.2 50.28c.265-.216-.113-.59-.376-.376" fill="#fff"/><path d="M28.422 31.04a4.334 4.334 0 1 0 0-8.67 4.334 4.334 0 0 0 0 8.67" fill="#F2F2F2"/><path d="M15.058 11.764H44.92v1.634H18.87A11.665 11.665 0 0 0 7.207 25.06v18.562H3.939a.544.544 0 0 1-.544-.545v-19.65a11.663 11.663 0 0 1 11.663-11.663" fill="#F2F2F2"/><path d="M20.802 68.37V43.553h7.27V68.37a.63.63 0 0 1-.629.63h-6.012a.63.63 0 0 1-.63-.63" fill="#3F3D56"/><path d="M1.856 43.064V22.882a12.13 12.13 0 0 1 12.118-12.117H44.78v32.997H2.556a.7.7 0 0 1-.7-.7m42.645-32.019H13.974a11.85 11.85 0 0 0-11.838 11.84v20.18a.42.42 0 0 0 .42.42H44.5z" fill="#3F3D56"/><path d="M28.422 28.942a2.52 2.52 0 0 1-2.517-2.517V8.39a.42.42 0 0 0-.42-.42h-9.787A.7.7 0 0 1 15 7.272V.699A.7.7 0 0 1 15.7 0h14.54a.7.7 0 0 1 .7.7v25.726a2.52 2.52 0 0 1-2.517 2.516" fill="url(#b)"/><path d="M45.899 10.486a7.953 7.953 0 0 1 7.97 7.937v22.973h15.659a2.37 2.37 0 0 1 2.377 2.367H37.929v-25.34a7.953 7.953 0 0 1 7.97-7.937" fill="#3F3D56"/><path d="m43.987 23.569 1.65 6.817 32.281-7.815-1.65-6.817a.51.51 0 0 0-.516-.39l-18.66-9.662a.515.515 0 0 0-.651.156L47.448 18.4l-3.39 4.73a.07.07 0 0 0-.013.058.5.5 0 0 0-.058.382" fill="#fff"/><path d="M44.045 23.187a.07.07 0 0 0 .028.044.08.08 0 0 0 .06.012.1.1 0 0 0 .042-.03l.012-.015.177-.247 3.206-4.47 8.99-12.537a.366.366 0 0 1 .464-.112L75.54 15.42l.166.086.02.008.038-.004a.072.072 0 0 0 .033-.115.1.1 0 0 0-.023-.018l-.023-.012-18.66-9.662a.515.515 0 0 0-.65.156L47.447 18.4l-3.39 4.73a.07.07 0 0 0-.012.058" fill="#3F3D56"/><path d="m53.74 23.882.718.08 5.333.59 3.536.392.209.023 4.411-3.446.17-.132 1.041-.814 3.707-2.895.022-.203 1.319-11.9a.623.623 0 0 0-.55-.687L56.06 2.94a.623.623 0 0 0-.687.55l-.93 8.394-.516 4.654-.461 4.163-.214 1.934-.062.56a.623.623 0 0 0 .55.687" fill="#E6E6E6"/><path d="m58.576 13.45 7.622.844 2.703.3a.914.914 0 1 0 .202-1.818l-3.363-.372-6.962-.772a.915.915 0 0 0-.202 1.818m-.434 3.372.059.01 8.848.98 1.478.163a.915.915 0 0 0 .2-1.818l-2.136-.236-7.009-.777-1.18-.13a.914.914 0 0 0-.26 1.808m-1.002 2.99a.91.91 0 0 0 .683.437l3.626.401 6.46.716h.001l.207.023 1.041-.814a.9.9 0 0 0-.26-.736.92.92 0 0 0-.548-.264l-.898-.1-3.56-.394-2.56-.284-3.308-.367a.914.914 0 0 0-.884 1.382m5.094-10.484 1.896.21.838.093 1.266.14a.915.915 0 0 0 .2-1.818l-3.998-.443a.915.915 0 0 0-.202 1.818" fill="#fff"/><path d="m46.726 14.392 2.313 9.551 3.859.734 3.57.68 3.83.728 1.224.233a.51.51 0 0 0 .41-.1l.982-.766.622-.486 4.412-3.445-2.806-11.588a.62.62 0 0 0-.442-.453.6.6 0 0 0-.308-.005l-17.208 4.166a.62.62 0 0 0-.458.75" fill="url(#c)"/><path d="M52.028 21.99a.915.915 0 0 0 1.104.673l10.097-2.444a.916.916 0 0 0 .245-1.678.9.9 0 0 0-.676-.1l-10.096 2.445a.916.916 0 0 0-.674 1.104m.87 2.687 3.57.68 7.561-1.831a.914.914 0 1 0-.43-1.778l-10.097 2.445a.9.9 0 0 0-.605.484m7.4 1.409 1.224.233a.52.52 0 0 0 .411-.1l.982-.767zm-6.235-9.218a.915.915 0 0 0 1.104.674l3.911-.947a.916.916 0 0 0 .505-1.451.92.92 0 0 0-.935-.326l-3.911.946a.915.915 0 0 0-.674 1.104" fill="#fff"/><path d="m56.467 25.356 3.83.729 1.224.233a.52.52 0 0 0 .411-.1l.983-.767-.345.084-.728.568a.37.37 0 0 1-.294.07l-.905-.171-3.831-.73zm11.442-3.99.038.154.17-.132zm-11.442 3.99 3.83.729 1.224.233a.52.52 0 0 0 .411-.1l.983-.767-.345.084-.728.568a.37.37 0 0 1-.294.07l-.905-.171-3.831-.73zm0 0 3.83.729 1.224.233a.52.52 0 0 0 .411-.1l.983-.767-.345.084-.728.568a.37.37 0 0 1-.294.07l-.905-.171-3.831-.73zm-12.48-1.788 4.322 17.856a.513.513 0 0 0 .618.378l31.286-7.574a.513.513 0 0 0 .377-.618l-4.322-17.856a.51.51 0 0 0-.728-.336.4.4 0 0 0-.085.053l-2.568 2.005-3.728 2.913-1.25.976v.001l-4.582 3.576-.757.593-.728.568a.37.37 0 0 1-.294.07l-.905-.171-3.831-.73-3.834-.729-8.398-1.598a.5.5 0 0 0-.535.24.5.5 0 0 0-.058.383m12.48 1.788 3.83.729 1.224.233a.52.52 0 0 0 .411-.1l.983-.767-.345.084-.728.568a.37.37 0 0 1-.294.07l-.905-.171-3.831-.73zm0 0 3.83.729 1.224.233a.52.52 0 0 0 .411-.1l.983-.767-.345.084-.728.568a.37.37 0 0 1-.294.07l-.905-.171-3.831-.73zm0 0 3.83.729 1.224.233a.52.52 0 0 0 .411-.1l.983-.767-.345.084-.728.568a.37.37 0 0 1-.294.07l-.905-.171-3.831-.73z" fill="#fff"/><path d="m56.467 25.356 3.83.729 1.224.233a.52.52 0 0 0 .411-.1l.983-.767-.345.084-.728.568a.37.37 0 0 1-.294.07l-.905-.171-3.831-.73zm11.442-3.99.038.154.17-.132zm-11.442 3.99 3.83.729 1.224.233a.52.52 0 0 0 .411-.1l.983-.767-.345.084-.728.568a.37.37 0 0 1-.294.07l-.905-.171-3.831-.73zm0 0 3.83.729 1.224.233a.52.52 0 0 0 .411-.1l.983-.767-.345.084-.728.568a.37.37 0 0 1-.294.07l-.905-.171-3.831-.73zm-12.28-2.16.02.015q.005-.008.012-.015a.37.37 0 0 1 .334-.108l8.345 1.588 3.57.68 3.83.729 1.223.233a.52.52 0 0 0 .411-.1l.983-.767-.345.084-.728.568a.37.37 0 0 1-.294.07l-.905-.171-3.831-.73-3.834-.729-8.398-1.598a.5.5 0 0 0-.216.005zm-.2.372 4.322 17.856a.513.513 0 0 0 .618.378l31.286-7.574a.513.513 0 0 0 .377-.618l-4.322-17.856a.51.51 0 0 0-.728-.336.4.4 0 0 0-.085.053l-2.568 2.005-3.728 2.913-1.25.976v.001l-4.582 3.576-.757.593-.728.568a.37.37 0 0 1-.294.07l-.905-.171-3.831-.73-3.834-.729-8.398-1.598a.5.5 0 0 0-.535.24.5.5 0 0 0-.058.383m.142-.034a.36.36 0 0 1 .077-.323l.013-.015a.37.37 0 0 1 .334-.108l8.345 1.588 3.57.68 3.83.729 1.223.233a.52.52 0 0 0 .411-.1l.983-.767.621-.485 4.41-3.446.17-.132 1.042-.814 3.707-2.895 2.681-2.093a.366.366 0 0 1 .58.202l4.323 17.856a.364.364 0 0 1-.27.443L48.893 41.66a.366.366 0 0 1-.441-.27zm12.338 1.822 3.83.729 1.224.233a.52.52 0 0 0 .411-.1l.983-.767-.345.084-.728.568a.37.37 0 0 1-.294.07l-.905-.171-3.831-.73zm0 0 3.83.729 1.224.233a.52.52 0 0 0 .411-.1l.983-.767-.345.084-.728.568a.37.37 0 0 1-.294.07l-.905-.171-3.831-.73zm0 0 3.83.729 1.224.233a.52.52 0 0 0 .411-.1l.983-.767-.345.084-.728.568a.37.37 0 0 1-.294.07l-.905-.171-3.831-.73z" fill="#3F3D56"/><path d="M72.059 30.72a1.137 1.137 0 0 1 .836-1.37l3.949-.956a1.135 1.135 0 0 1 .534 2.207l-3.949.956a1.137 1.137 0 0 1-1.37-.836" fill="url(#d)"/><path d="M28.422 27.405a.979.979 0 1 0 0-1.958.979.979 0 0 0 0 1.958" fill="#fff"/></g><defs><linearGradient id="b" x1="22.831" y1="-.159" x2="22.831" y2="35.03" gradientUnits="userSpaceOnUse"><stop stop-color="#EB7C49"/><stop offset="1" stop-color="#F04F52"/></linearGradient><linearGradient id="c" x1="57.144" y1="9.365" x2="57.144" y2="29.875" gradientUnits="userSpaceOnUse"><stop stop-color="#EB7C49"/><stop offset="1" stop-color="#F04F52"/></linearGradient><linearGradient id="d" x1="75.081" y1="28.346" x2="75.081" y2="32.267" gradientUnits="userSpaceOnUse"><stop stop-color="#EB7C49"/><stop offset="1" stop-color="#F04F52"/></linearGradient><clipPath id="a"><path fill="#fff" d="M0 0h80.605v69H0z"/></clipPath></defs></svg>