<svg width="15" height="15" viewBox="0 0 15 15" fill="none" xmlns="http://www.w3.org/2000/svg">
    <path
        d="M15 3.21425C15 2.64592 14.7743 2.10088 14.3724 1.69901C13.9706 1.29715 13.4255 1.07138 12.8572 1.07138H12.3215V0.550734C12.3215 0.262452 12.0998 0.0150181 11.8115 0.000620754C11.7391 -0.00286917 11.6667 0.00838332 11.5988 0.0336965C11.5308 0.0590096 11.4687 0.0978564 11.4162 0.147883C11.3637 0.197909 11.3219 0.258074 11.2933 0.324731C11.2648 0.391388 11.25 0.463149 11.25 0.535667V1.07138H3.75001V0.550734C3.75001 0.262452 3.52836 0.0150181 3.24008 0.000620754C3.16764 -0.00286917 3.09526 0.00838332 3.0273 0.0336965C2.95934 0.0590096 2.89723 0.0978564 2.84473 0.147883C2.79223 0.197909 2.75044 0.258074 2.72188 0.324731C2.69332 0.391388 2.67859 0.463149 2.67858 0.535667V1.07138H2.14286C1.57454 1.07138 1.0295 1.29715 0.62763 1.69901C0.225765 2.10088 0 2.64592 0 3.21425V3.61603C0 3.65155 0.0141104 3.68562 0.0392269 3.71074C0.0643435 3.73585 0.0984088 3.74996 0.133929 3.74996H14.8661C14.9016 3.74996 14.9357 3.73585 14.9608 3.71074C14.9859 3.68562 15 3.65155 15 3.61603V3.21425ZM0 12.8571C0 13.4255 0.225765 13.9705 0.62763 14.3724C1.0295 14.7742 1.57454 15 2.14286 15H12.8572C13.4255 15 13.9706 14.7742 14.3724 14.3724C14.7743 13.9705 15 13.4255 15 12.8571V4.92184C15 4.8952 14.9895 4.86965 14.9706 4.85082C14.9518 4.83198 14.9262 4.8214 14.8996 4.8214H0.100447C0.0738066 4.8214 0.0482576 4.83198 0.0294202 4.85082C0.0105828 4.86965 0 4.8952 0 4.92184V12.8571ZM11.5179 5.89283C11.6768 5.89283 11.8322 5.93996 11.9643 6.02825C12.0965 6.11655 12.1995 6.24205 12.2603 6.38889C12.3211 6.53572 12.337 6.69729 12.306 6.85317C12.275 7.00905 12.1985 7.15223 12.0861 7.26461C11.9737 7.377 11.8305 7.45353 11.6747 7.48454C11.5188 7.51554 11.3572 7.49963 11.2104 7.43881C11.0635 7.37799 10.938 7.27499 10.8497 7.14284C10.7614 7.0107 10.7143 6.85533 10.7143 6.6964C10.7143 6.48328 10.799 6.27889 10.9497 6.12819C11.1004 5.97749 11.3048 5.89283 11.5179 5.89283ZM11.5179 8.57141C11.6768 8.57141 11.8322 8.61854 11.9643 8.70683C12.0965 8.79513 12.1995 8.92063 12.2603 9.06747C12.3211 9.2143 12.337 9.37587 12.306 9.53175C12.275 9.68763 12.1985 9.83081 12.0861 9.94319C11.9737 10.0556 11.8305 10.1321 11.6747 10.1631C11.5188 10.1941 11.3572 10.1782 11.2104 10.1174C11.0635 10.0566 10.938 9.95357 10.8497 9.82142C10.7614 9.68928 10.7143 9.53391 10.7143 9.37498C10.7143 9.16186 10.799 8.95747 10.9497 8.80677C11.1004 8.65607 11.3048 8.57141 11.5179 8.57141ZM8.83932 5.89283C8.99825 5.89283 9.15361 5.93996 9.28576 6.02825C9.4179 6.11655 9.5209 6.24205 9.58172 6.38889C9.64254 6.53572 9.65845 6.69729 9.62745 6.85317C9.59644 7.00905 9.51991 7.15223 9.40753 7.26461C9.29515 7.377 9.15196 7.45353 8.99608 7.48454C8.84021 7.51554 8.67863 7.49963 8.5318 7.43881C8.38497 7.37799 8.25947 7.27499 8.17117 7.14284C8.08287 7.0107 8.03574 6.85533 8.03574 6.6964C8.03574 6.48328 8.1204 6.27889 8.2711 6.12819C8.4218 5.97749 8.62619 5.89283 8.83932 5.89283ZM8.83932 8.57141C8.99825 8.57141 9.15361 8.61854 9.28576 8.70683C9.4179 8.79513 9.5209 8.92063 9.58172 9.06747C9.64254 9.2143 9.65845 9.37587 9.62745 9.53175C9.59644 9.68763 9.51991 9.83081 9.40753 9.94319C9.29515 10.0556 9.15196 10.1321 8.99608 10.1631C8.84021 10.1941 8.67863 10.1782 8.5318 10.1174C8.38497 10.0566 8.25947 9.95357 8.17117 9.82142C8.08287 9.68928 8.03574 9.53391 8.03574 9.37498C8.03574 9.16186 8.1204 8.95747 8.2711 8.80677C8.4218 8.65607 8.62619 8.57141 8.83932 8.57141ZM8.83932 11.25C8.99825 11.25 9.15361 11.2971 9.28576 11.3854C9.4179 11.4737 9.5209 11.5992 9.58172 11.746C9.64254 11.8929 9.65845 12.0545 9.62745 12.2103C9.59644 12.3662 9.51991 12.5094 9.40753 12.6218C9.29515 12.7342 9.15196 12.8107 8.99608 12.8417C8.84021 12.8727 8.67863 12.8568 8.5318 12.796C8.38497 12.7351 8.25947 12.6322 8.17117 12.5C8.08287 12.3679 8.03574 12.2125 8.03574 12.0536C8.03574 11.8404 8.1204 11.636 8.2711 11.4853C8.4218 11.3347 8.62619 11.25 8.83932 11.25ZM6.16073 8.57141C6.31967 8.57141 6.47503 8.61854 6.60718 8.70683C6.73932 8.79513 6.84232 8.92063 6.90314 9.06747C6.96396 9.2143 6.97987 9.37587 6.94887 9.53175C6.91786 9.68763 6.84133 9.83081 6.72895 9.94319C6.61657 10.0556 6.47338 10.1321 6.3175 10.1631C6.16163 10.1941 6.00005 10.1782 5.85322 10.1174C5.70639 10.0566 5.58088 9.95357 5.49259 9.82142C5.40429 9.68928 5.35716 9.53391 5.35716 9.37498C5.35716 9.16186 5.44182 8.95747 5.59252 8.80677C5.74322 8.65607 5.94761 8.57141 6.16073 8.57141ZM6.16073 11.25C6.31967 11.25 6.47503 11.2971 6.60718 11.3854C6.73932 11.4737 6.84232 11.5992 6.90314 11.746C6.96396 11.8929 6.97987 12.0545 6.94887 12.2103C6.91786 12.3662 6.84133 12.5094 6.72895 12.6218C6.61657 12.7342 6.47338 12.8107 6.3175 12.8417C6.16163 12.8727 6.00005 12.8568 5.85322 12.796C5.70639 12.7351 5.58088 12.6322 5.49259 12.5C5.40429 12.3679 5.35716 12.2125 5.35716 12.0536C5.35716 11.8404 5.44182 11.636 5.59252 11.4853C5.74322 11.3347 5.94761 11.25 6.16073 11.25ZM3.48215 8.57141C3.64109 8.57141 3.79645 8.61854 3.9286 8.70683C4.06074 8.79513 4.16374 8.92063 4.22456 9.06747C4.28538 9.2143 4.30129 9.37587 4.27029 9.53175C4.23928 9.68763 4.16275 9.83081 4.05037 9.94319C3.93799 10.0556 3.7948 10.1321 3.63892 10.1631C3.48305 10.1941 3.32147 10.1782 3.17464 10.1174C3.02781 10.0566 2.9023 9.95357 2.81401 9.82142C2.72571 9.68928 2.67858 9.53391 2.67858 9.37498C2.67858 9.16186 2.76324 8.95747 2.91394 8.80677C3.06464 8.65607 3.26903 8.57141 3.48215 8.57141ZM3.48215 11.25C3.64109 11.25 3.79645 11.2971 3.9286 11.3854C4.06074 11.4737 4.16374 11.5992 4.22456 11.746C4.28538 11.8929 4.30129 12.0545 4.27029 12.2103C4.23928 12.3662 4.16275 12.5094 4.05037 12.6218C3.93799 12.7342 3.7948 12.8107 3.63892 12.8417C3.48305 12.8727 3.32147 12.8568 3.17464 12.796C3.02781 12.7351 2.9023 12.6322 2.81401 12.5C2.72571 12.3679 2.67858 12.2125 2.67858 12.0536C2.67858 11.8404 2.76324 11.636 2.91394 11.4853C3.06464 11.3347 3.26903 11.25 3.48215 11.25Z"
        fill="url(#paint0_linear_2265_2833)" />
    <defs>
        <linearGradient id="paint0_linear_2265_2833" x1="7.37004" y1="-0.0823393" x2="7.37004"
            y2="18.1552" gradientUnits="userSpaceOnUse">
            <stop stop-color="#EB7C49" />
            <stop offset="1" stop-color="#F04F52" />
        </linearGradient>
    </defs>
</svg>
    