<svg width="13" height="11" viewBox="0 0 13 11" fill="none" xmlns="http://www.w3.org/2000/svg"><path d="M9.778 7.333H8.556v1.223h1.222m0-3.667H8.556V6.11h1.222M11 9.778H6.111V8.556h1.222V7.333H6.111V6.111h1.222V4.89H6.111V3.667H11M4.889 2.444H3.667V1.222h1.222m0 3.667H3.667V3.667h1.222m0 3.666H3.667V6.111h1.222m0 3.667H3.667V8.556h1.222M2.444 2.444H1.222V1.222h1.222m0 3.667H1.222V3.667h1.222m0 3.666H1.222V6.111h1.222m0 3.667H1.222V8.556h1.222m3.667-6.112V0H0v11h12.222V2.444z" fill="#F04F52"/></svg>