<svg width="18" height="18" viewBox="0 0 18 18" fill="none" xmlns="http://www.w3.org/2000/svg">
    <path
        d="M9 18C4.00781 18 0 13.9365 0 9C0 4.00781 4.00781 0 9 0C13.9922 0 18 4.00781 18 9C18 13.9365 13.9922 18 9 18ZM9 1.512C4.878 1.512 1.50862 4.878 1.50862 9.00056C1.50862 13.1231 4.878 16.4919 9 16.4919C13.122 16.4919 16.4914 13.1226 16.4914 9.00056C16.4914 4.87856 13.122 1.512 9 1.512ZM13.4151 9.87019H6.91088C6.77306 9.87094 6.64056 9.8171 6.54232 9.72045C6.44409 9.62379 6.38811 9.49218 6.38663 9.35437V8.59556C6.38663 8.3025 6.61781 8.07131 6.91088 8.07131H13.4702C13.7604 8.07131 13.9916 8.30587 13.9916 8.59556V9.34875C13.9359 9.639 13.7014 9.87019 13.4145 9.87019H13.4151ZM11.7304 6.96656H5.16769C5.02979 6.96761 4.89711 6.91387 4.79881 6.81715C4.70051 6.72044 4.64463 6.58865 4.64344 6.45075V5.69194C4.64344 5.45738 4.878 5.22619 5.16769 5.22619H11.727C11.9616 5.22619 12.1927 5.46075 12.1927 5.69194V6.44513C12.1927 6.73537 11.9621 6.96656 11.7304 6.96656ZM5.16825 11.0334H11.7309C12.0212 11.0334 12.2524 11.2646 12.2524 11.5549V12.3081C12.253 12.4463 12.1987 12.5792 12.1015 12.6774C12.0042 12.7757 11.872 12.8314 11.7338 12.8323H5.16825C4.878 12.7738 4.64681 12.5421 4.64681 12.2524V11.4964C4.644 11.2652 4.878 11.0334 5.16825 11.0334Z"
        fill="url(#paint0_linear_2265_2895)" />
    <defs>
        <linearGradient id="paint0_linear_2265_2895" x1="8.84402" y1="-0.0988071" x2="8.84402"
            y2="21.7863" gradientUnits="userSpaceOnUse">
            <stop stop-color="#EB7C49" />
            <stop offset="1" stop-color="#F04F52" />
        </linearGradient>
    </defs>
</svg>
    